<svg xmlns="http://www.w3.org/2000/svg" width="24" height="24" viewBox="0 0 24 24" fill="none">
  <path fill-rule="evenodd" clip-rule="evenodd" d="M10.4041 22.4044C4.66502 22.4044 0 17.7388 0 12.0003C0 6.26177 4.66502 1.59619 10.4041 1.59619C13.0356 1.59619 15.5054 2.55178 17.4293 4.3157C16.7881 4.69592 16.1699 5.11373 15.5779 5.56694C14.1133 4.38407 12.2868 3.74024 10.4041 3.74323C5.85591 3.74323 2.14704 7.45211 2.14704 12.0003C2.14704 16.5485 5.85591 20.2568 10.4041 20.2568C16.7323 20.2568 20.4893 13.4924 17.7676 8.2333C18.303 7.73524 18.8575 7.25801 19.4297 6.80268C20.3404 8.37503 20.8082 10.1583 20.8082 11.9998C20.8082 17.7388 16.1432 22.4044 10.4041 22.4044Z" fill="#43B7FF"/>
  <path fill-rule="evenodd" clip-rule="evenodd" d="M10.6776 17.3485C10.6227 17.3477 10.5692 17.3306 10.524 17.2993C10.4787 17.2681 10.4438 17.2241 10.4235 17.173C10.4041 17.1343 8.72548 12.8003 6.12943 11.1604C5.62174 10.8482 5.23142 10.5165 5.38755 9.77466C5.54368 9.0527 6.03144 8.64245 6.91007 8.44757C8.47136 8.11538 10.1506 10.5359 10.7745 11.5314C12.9614 8.35012 17.3336 3.35291 23.6972 2.76716C24.0039 2.73117 24.1179 3.18627 23.8339 3.31361C23.7365 3.35236 14.6401 7.51024 10.9506 17.1924C10.923 17.2403 10.8832 17.28 10.8352 17.3074C10.7873 17.3348 10.7329 17.349 10.6776 17.3485Z" fill="#43B7FF"/>
</svg>