<svg width="713" height="63" viewBox="0 0 713 63" fill="none" xmlns="http://www.w3.org/2000/svg">
<rect x="82.3125" y="0.575195" width="6.9375" height="54.4375" fill="#01060A"/>
<rect x="262.688" y="0.575195" width="6.9375" height="54.4375" fill="#01060A"/>
<rect x="443.062" y="0.575195" width="6.9375" height="54.4375" fill="#01060A"/>
<rect x="623.438" y="0.575195" width="6.9375" height="54.4375" fill="#01060A"/>
<rect x="160.938" y="43.4502" width="37" height="18.5" fill="#01060A"/>
<rect x="339" y="43.4502" width="37" height="18.5" fill="#01060A"/>
<rect x="526.312" y="43.4502" width="37" height="18.5" fill="#01060A"/>
<line x1="89.1406" y1="1.09538" x2="263.141" y2="52.0954" stroke="#01060A"/>
<path d="M88.5 52.5752L262.859 1.09551" stroke="#01060A"/>
<line x1="269.142" y1="1.09591" x2="444.142" y2="53.0959" stroke="#01060A"/>
<line x1="268.858" y1="53.0959" x2="443.858" y2="1.09591" stroke="#01060A"/>
<path d="M449.5 1.0752L624.143 52.0962" stroke="#01060A"/>
<line x1="449.859" y1="52.0954" x2="623.859" y2="1.09538" stroke="#01060A"/>
<rect y="53" width="713" height="10" fill="#01060A"/>
<rect x="82.3125" y="0.575195" width="6.9375" height="54.4375" fill="#01060A"/>
<rect x="262.688" y="0.575195" width="6.9375" height="54.4375" fill="#01060A"/>
<rect x="443.062" y="0.575195" width="6.9375" height="54.4375" fill="#01060A"/>
<rect x="623.438" y="0.575195" width="6.9375" height="54.4375" fill="#01060A"/>
<rect x="160.938" y="43.4502" width="37" height="18.5" fill="#01060A"/>
<rect x="339" y="43.4502" width="37" height="18.5" fill="#01060A"/>
<rect x="526.312" y="43.4502" width="37" height="18.5" fill="#01060A"/>
<path d="M88.5 52.5752L262.859 1.09551" stroke="#01060A"/>
<line x1="269.142" y1="1.09591" x2="444.142" y2="53.0959" stroke="#01060A"/>
<line x1="268.858" y1="53.0959" x2="443.858" y2="1.09591" stroke="#01060A"/>
<path d="M449.5 1.0752L624.143 52.0962" stroke="#01060A"/>
<line x1="449.859" y1="52.0954" x2="623.859" y2="1.09538" stroke="#01060A"/>
<path d="M83 1L0.499999 53.5" stroke="black"/>
<line x1="630.27" y1="0.579242" x2="711.27" y2="52.5792" stroke="black"/>
</svg>
