<?xml version="1.0" encoding="iso-8859-1"?>
<!-- Generator: Adobe Illustrator 19.0.0, SVG Export Plug-In . SVG Version: 6.00 Build 0)  -->
<svg version="1.1" id="Capa_1" xmlns="http://www.w3.org/2000/svg" xmlns:xlink="http://www.w3.org/1999/xlink" x="0px" y="0px"
	 viewBox="0 0 511.999 511.999" style="enable-background:new 0 0 511.999 511.999;" xml:space="preserve">
<path style="fill:#8B9BA9;" d="M326.971,341.969c-3.839,0-7.677-1.464-10.605-4.394L174.422,195.632
	c-5.857-5.857-5.857-15.353,0-21.211c5.856-5.857,15.353-5.857,21.211,0l141.945,141.945c5.857,5.857,5.857,15.353,0,21.211
	C334.649,340.506,330.81,341.969,326.971,341.969z"/>
<path style="fill:#E9E3D5;" d="M395.986,116.013L395.986,116.013c-21.96-21.96-57.564-21.96-79.525,0v79.525h79.525
	C417.945,173.577,417.945,137.973,395.986,116.013z"/>
<path style="fill:#B6B0A2;" d="M395.986,116.013L395.986,116.013c-4.584-4.585-9.768-8.197-15.292-10.868
	c10.122,20.943,6.508,46.856-10.868,64.232l-53.365,26.16h79.525C417.945,173.577,417.945,137.973,395.986,116.013z"/>
<path style="fill:#8B9BA9;" d="M149.937,362.052L149.937,362.052c-32.307-32.309-79.09-41.318-119.47-27.027
	c-23.912,8.462-30.736,39.054-12.8,56.991l102.308,102.313c17.935,17.937,48.526,11.113,56.988-12.801
	C191.253,441.147,182.244,394.361,149.937,362.052z"/>
<path style="fill:#596775;" d="M149.937,362.052L149.937,362.052c-9.154-9.155-19.472-16.435-30.476-21.848
	c13.694,27.833,15.423,60.062,5.181,89.004c-8.455,23.893-38.999,30.724-56.941,12.844l52.274,52.277
	c17.936,17.937,48.526,11.113,56.988-12.801C191.253,441.147,182.244,394.361,149.937,362.052z"/>
<path style="fill:#FFCF5D;" d="M317.067,116.619c-5.857-5.857-15.353-5.857-21.211,0L121.575,290.901
	c-11.666,11.666-11.666,30.756,0,42.422l57.1,57.1c11.666,11.666,30.756,11.666,42.423,0L395.38,216.141
	c5.857-5.857,5.857-15.353,0-21.211L317.067,116.619z"/>
<path style="fill:#FF983B;" d="M395.379,194.931l-26.159-26.16l0.001,0.001l-52.153-52.153c-5.857-5.857-15.353-5.857-21.211,0
	l-5.302,5.302l64.525,64.525c4.882,4.882,4.882,12.795,0,17.676L194.937,364.263c-11.666,11.666-30.755,11.666-42.422,0.001
	l26.159,26.159c11.666,11.666,30.756,11.666,42.422,0l168.978-168.979l0,0l5.302-5.302
	C401.236,210.285,401.236,200.788,395.379,194.931z"/>
<circle style="fill:#8B9BA9;" cx="22.523" cy="489.48" r="14.999"/>
<path style="fill:#5C87BD;" d="M115.789,16.266C104.124,4.6,85.034,4.6,73.368,16.266l-57.101,57.1
	c-11.666,11.666-11.666,30.756,0,42.422L124.66,224.181c5.857,5.857,15.353,5.857,21.211,0l78.311-78.312
	c5.857-5.857,5.857-15.353,0-21.211L115.789,16.266z"/>
<path style="fill:#315588;" d="M115.789,16.266C107.975,8.453,96.833,5.88,86.82,8.533c-2.76,10.268,0.082,21.268,7.756,28.944
	l97.789,97.787l-67.707,67.707c-3.751,3.751-6.396,8.399-7.742,13.467l7.743,7.743c5.857,5.857,15.353,5.857,21.211,0l78.311-78.312
	c5.857-5.857,5.857-15.353,0-21.211L115.789,16.266z"/>
<path style="fill:#5C87BD;" d="M495.732,396.209L387.338,287.815c-5.857-5.857-15.353-5.857-21.211,0l-78.312,78.312
	c-5.857,5.857-5.857,15.353,0,21.211L396.21,495.732c11.666,11.666,30.756,11.666,42.422,0l57.1-57.1
	C507.398,426.965,507.398,407.875,495.732,396.209z"/>
<path style="fill:#315588;" d="M438.631,495.732l57.1-57.1c11.666-11.666,11.666-30.756,0-42.422L387.338,287.815
	c-5.857-5.857-15.353-5.857-21.211,0l-7.743,7.743c1.345,5.067,3.992,9.717,7.743,13.468l108.344,108.325
	c0.01,0.026,0.012,0.079,0.031,0.079c0.005,0,0.011-0.003,0.018-0.01l-57.1,57.1c-7.674,7.675-10.516,18.675-7.756,28.943
	C419.676,506.117,430.818,503.545,438.631,495.732z"/>
<path d="M501.035,390.907c-22.361-22.36-21.119-21.309-21.119-21.309c-29.992-29.777,28.233,28.422-87.275-87.085
	c-8.771-8.771-23.046-8.77-31.817,0l-23.247,23.248l-10.608-10.608c0.055-0.055,73.651-73.655,73.706-73.71
	c6.442-6.427,8.51-16.337,4.646-25.033c9.473-11.406,14.635-25.621,14.635-40.634c0-56.336-68.613-85.246-108.798-45.065
	c-2.929,2.929-2.927,7.682,0.005,10.61c86.063,86.07,81.091,79.834,81.114,84.214c-0.021,3.912-2.063,5.172-7.499,10.609
	l-73.013-73.013c-2.949-2.928-7.67-2.917-10.608,0c-2.915,2.936-2.931,7.658,0,10.609l73.013,73.013l0,0l0,0L221.098,379.821l0,0
	l0,0c-79.286-79.296-73.911-75.207-78.308-75.207c-4.158,0-7.499,3.346-7.499,7.499c0,4.407-4.004-0.894,74.266,77.375
	c-8.588,4.066-18.823,2.38-25.58-4.363l-57.104-57.104c-8.07-8.089-9.423-21.944,0.108-31.925l0,0l0,0l169.625-169.625l0,0
	c1.363-1.363-80.089,80.089,0,0c2.928-2.929,2.944-7.665,0-10.609c-2.888-2.911-7.642-2.957-10.589-0.01
	c-0.01,0.01-0.01,0.01-0.01,0.01l-69.163,69.163l-10.605-10.605l23.248-23.248c8.793-8.794,8.792-23.024,0-31.816
	c-0.096-0.096-87.279-87.278-87.184-87.185c-0.087-0.086-21.122-21.121-21.209-21.208c-14.609-14.609-38.42-14.608-53.028,0
	c-0.013,0.013-55.783,55.783-57.1,57.1c-14.619,14.62-14.619,38.407,0,53.028c2.178,2.178,78.56,78.56,76.572,76.573
	c0.586,0.586-1.672-1.673,31.822,31.821c8.77,8.77,23.045,8.771,31.817,0l23.247-23.248l10.605,10.605
	c-74.908,74.908-73.154,71.699-76.962,81.162c-3.71,9.17-3.782,19.784,0.557,29.506c-27.084-9.359-56.08-8.245-80.659,0.441
	c-9.168,3.251-4.498,17.535,5.01,14.139c85.419-30.208,166.837,52.279,136.925,136.936c-6.674,18.746-30.559,24.028-44.616,9.999
	l-102.31-102.31c-5.18-5.199-7.93-11.789-7.949-19.068c0-9.051,3.749-10.555,1.54-15.398c-2.761-6.086-11.515-5.733-13.839,0.47
	c0,0.01-0.011,0.01-0.011,0.01c-3.632,9.738-3.662,20.66,0.34,30.567c4.167,10.336,5.132,9.851,55.162,59.881l-26.009,26.008
	c-15.013-7.178-32.182,3.853-32.182,20.29c0,12.434,10.063,22.498,22.498,22.498c16.565,0,27.408-17.296,20.29-32.182l26.009-26.008
	c49.946,49.946,49.53,50.975,59.83,55.141c21.529,8.714,47.206-1.711,55.374-24.888c8.855-25.021,9.685-53.78,0.404-80.682
	c14.093,6.342,30.851,3.493,41.972-7.629l68.752-68.755l10.608,10.608l-23.247,23.248c-8.793,8.793-8.794,23.023-0.001,31.817
	c1.78,1.78,88.526,88.527,87.184,87.185c0.312,0.312-1.423-1.424,21.209,21.208c14.611,14.609,38.42,14.607,53.028,0
	c6.046-6.046,51.037-51.037,57.1-57.1C515.654,429.315,515.654,405.526,501.035,390.907z M404.956,155.775
	c0,10.482-3.287,20.459-9.373,28.754c-39.097-39.097-23.59-23.589-68.106-68.111C359.579,92.94,404.956,116.004,404.956,155.775z
	 M218.88,140.566l-33.857,33.858l-31.819-31.819c24.988-24.988,25.452-24.401,25.452-28.552c0-4.195-3.413-7.499-7.499-7.499
	c-4.146,0-3.308,0.198-28.557,25.447L97.839,87.241l39.159-39.159l81.881,81.881C221.805,132.888,221.816,137.63,218.88,140.566z
	 M21.57,78.67l57.1-57.1c8.744-8.746,23.072-8.745,31.815,0l15.909,15.909L87.235,76.637C70.161,59.563,70.097,58.529,66.027,58.529
	c-6.643,0-10.026,8.083-5.309,12.799L76.632,87.24c-25.013,25.013-25.543,24.476-25.543,28.643c0,4.108,3.335,7.499,7.499,7.499
	c4.148,0,3.533-0.423,28.649-25.538L132,142.602l-39.157,39.157L21.57,110.486C12.798,101.713,12.798,87.441,21.57,78.67z
	 M140.569,218.879c-2.925,2.923-7.682,2.925-10.606,0l-26.516-26.516l39.157-39.157l31.821,31.818
	c-9.552,9.553-7.393,7.393-10.608,10.608l0,0L140.569,218.879z M185.027,195.632l10.605-10.606l10.605,10.605l-10.605,10.605
	L185.027,195.632z M22.523,496.975c-4.145,0-7.499-3.355-7.499-7.499c0-6.703,8.121-9.985,12.802-5.302
	C32.505,488.855,29.228,496.975,22.523,496.975z M376.733,290.926c4.193,0,3.247,0.137,31.818,28.709l-39.162,39.156l-31.816-31.816
	c4.069-4.069,6.528-6.528,10.609-10.609l0,0C373.294,291.253,372.584,290.926,376.733,290.926z M305.76,316.366l10.605-10.605
	l10.605,10.605l-10.605,10.606L305.76,316.366z M293.12,371.429l33.856-33.856l31.815,31.816
	c-25.209,25.206-25.449,24.409-25.449,28.555c0,4.184,3.405,7.499,7.499,7.499c4.132,0,3.509-0.409,28.553-25.451l44.765,44.765
	l-39.159,39.158l-81.881-81.881C290.188,379.104,290.187,374.361,293.12,371.429z M490.429,433.328
	c-6.066,6.066-51.295,51.295-57.1,57.1c-8.77,8.771-23.045,8.771-31.815,0l-15.909-15.909l39.158-39.159l15.908,15.908
	c2.883,2.903,7.657,2.963,10.6,0c2.933-2.912,2.938-7.681,0-10.599l-15.908-15.908c25.094-25.095,25.537-24.499,25.537-28.647
	c0-6.707-8.115-9.984-12.799-5.299l-23.343,23.343l-44.764-44.764l39.162-39.156l71.274,71.274
	C499.2,410.284,499.2,424.556,490.429,433.328z"/>
<g>
</g>
<g>
</g>
<g>
</g>
<g>
</g>
<g>
</g>
<g>
</g>
<g>
</g>
<g>
</g>
<g>
</g>
<g>
</g>
<g>
</g>
<g>
</g>
<g>
</g>
<g>
</g>
<g>
</g>
</svg>
