<svg xmlns="http://www.w3.org/2000/svg" version="1.1" xmlns:xlink="http://www.w3.org/1999/xlink" width="512" height="512" x="0" y="0" viewBox="0 0 512 512" style="enable-background:new 0 0 512 512" xml:space="preserve" class=""><g><path fill-rule="evenodd" d="M182.26 498.5h147.47c2.75 0 5-2.25 5-5v-92.36c0-13.77 4.91-25.62 14.64-35.36l87.39-87.39c9.76-9.76 9.76-25.59 0-35.35s-25.59-9.76-35.35 0l-73.11 73.11c-9.74 9.74-21.59 14.64-35.36 14.64h-73.89c-13.77 0-25.62-4.91-35.36-14.64l-73.11-73.11c-9.76-9.76-25.59-9.76-35.35 0s-9.76 25.59 0 35.35l87.39 87.39c9.74 9.74 14.64 21.59 14.64 35.36v92.36c0 2.75 2.25 5 5 5zM259.17 25l15.07 46.7c.45 1.4 1.7 2.31 3.18 2.31l49.07-.09c3.23 0 4.57 4.14 1.96 6.03l-39.75 28.77a3.283 3.283 0 0 0-1.21 3.73l15.25 46.64c1 3.06-2.53 5.62-5.13 3.73l-39.64-28.92a3.285 3.285 0 0 0-3.93 0l-39.64 28.92c-2.6 1.89-6.13-.67-5.13-3.73l15.25-46.64c.46-1.4-.02-2.87-1.21-3.73l-39.75-28.77c-2.61-1.89-1.27-6.04 1.96-6.03l49.07.09c1.47 0 2.72-.91 3.18-2.31L252.84 25c.99-3.07 5.35-3.07 6.34 0zm43.13 19.74 16.93-23.31a4.99 4.99 0 1 0-8.08-5.86l-16.93 23.31a4.99 4.99 0 0 0 1.11 6.97 4.99 4.99 0 0 0 6.97-1.11zm20.53 82.19 27.4 8.9c2.62.85 5.44-.58 6.29-3.2s-.58-5.44-3.2-6.29l-27.4-8.9c-2.62-.85-5.44.58-6.29 3.2s.58 5.44 3.2 6.29zm-136.74-9.49-27.4 8.9c-2.62.85-4.06 3.67-3.2 6.29s3.67 4.06 6.29 3.2l27.4-8.9c2.62-.85 4.06-3.67 3.2-6.29s-3.67-4.06-6.29-3.2zm31.7-78.56-16.93-23.31a4.99 4.99 0 1 0-8.08 5.86l16.93 23.31a4.99 4.99 0 1 0 8.08-5.86zM256 212.19c27.99 0 50.67 22.69 50.67 50.67s-22.69 50.67-50.67 50.67-50.67-22.69-50.67-50.67 22.69-50.67 50.67-50.67z" fill="#001f3f" opacity="1" data-original="#000000"></path></g></svg>