<svg xmlns="http://www.w3.org/2000/svg" version="1.1" xmlns:xlink="http://www.w3.org/1999/xlink" width="512" height="512" x="0" y="0" viewBox="0 0 64 64" style="enable-background:new 0 0 512 512" xml:space="preserve" class=""><g><path d="M56.845 27h-10.69A2.158 2.158 0 0 0 44 29.155v22.69c0 1.188.967 2.155 2.154 2.155h10.69A2.158 2.158 0 0 0 59 51.845v-22.69A2.158 2.158 0 0 0 56.845 27zM53 51h-3a1 1 0 1 1 0-2h3a1 1 0 1 1 0 2z" fill="#001f3f" opacity="1" data-original="#000000"></path><path d="M54 25V13.779a3.8 3.8 0 0 0-1.107-2.671A3.753 3.753 0 0 0 50.22 10H8.779A3.783 3.783 0 0 0 5 13.779v24.442a3.8 3.8 0 0 0 1.106 2.671A3.804 3.804 0 0 0 8.779 42H42V29.155A4.159 4.159 0 0 1 46.154 25zM31 38.453h-3a1 1 0 0 1 0-2h3a1 1 0 0 1 0 2zM40 52h-4v-8H23v8h-4a1 1 0 0 0 0 2h21a1 1 0 1 0 0-2z" fill="#001f3f" opacity="1" data-original="#000000"></path></g></svg>