<svg width="38" height="48" viewBox="0 0 38 48" fill="none" xmlns="http://www.w3.org/2000/svg">
<path d="M24.2068 36.7255C24.2068 36.7255 24.1792 36.7468 24.1159 36.7391C23.5308 36.903 23.0091 37.0747 22.4872 37.2463C22.3959 37.2347 22.3045 37.223 22.1835 37.1489C22.0481 37.0389 21.9424 36.9914 21.8368 36.9438C21.8368 36.9438 21.8434 36.9401 21.8434 36.899C21.8423 36.7401 21.8411 36.6222 21.8398 36.5044C21.8398 36.5044 21.8438 36.5093 21.8664 36.4969C21.9071 36.4521 21.925 36.4198 21.9429 36.3874C21.9429 36.3874 21.9447 36.3966 21.9672 36.3881C22.0125 36.3508 22.0351 36.3219 22.0578 36.2932C22.0578 36.2932 22.0581 36.2956 22.0899 36.2939C22.1711 36.2549 22.2206 36.2176 22.27 36.1803C22.494 36.0322 22.7179 35.8842 22.9419 35.7363C22.9292 35.6683 22.9164 35.6003 22.9037 35.5322C22.513 35.5166 22.1094 35.4307 21.7339 35.499C20.7875 35.6709 19.8594 35.9441 18.9122 36.1095C18.558 36.1714 18.1712 36.0472 17.6751 35.9947C18.2392 35.0804 19.3494 35.3239 19.9285 34.4268C19.393 34.4105 18.9716 34.4122 18.5528 34.3806C18.1853 34.3529 17.8043 34.3355 17.4618 34.2185C17.2965 34.1621 17.2059 33.8873 17.0816 33.7113C17.2442 33.5991 17.3951 33.4589 17.5734 33.3837C17.7145 33.3242 17.889 33.3354 18.0491 33.3311C18.4977 33.319 18.7798 33.1584 18.8498 32.6567C18.875 32.4769 19.0993 32.3013 19.2695 32.1722C19.4168 32.0605 19.6162 32.0171 19.7936 31.8636C18.4987 31.3484 17.0642 31.7093 15.771 31.2553C15.7634 31.1966 15.7558 31.1378 15.7483 31.0791C16.782 30.879 17.8157 30.6789 18.8494 30.4788C18.8611 30.4011 18.8728 30.3234 18.8846 30.2458C18.5703 30.0388 18.2526 29.8369 17.9427 29.6235C17.6018 29.3889 17.0414 29.265 17.1174 28.7508C17.1943 28.2311 17.7675 28.2773 18.164 28.1791C18.5087 28.094 18.8722 28.0869 19.2258 28.0351C19.4727 27.9989 19.7439 27.9968 19.9561 27.8866C20.2166 27.7515 20.4268 27.5197 20.6588 27.3296C20.3907 27.2354 20.1288 27.0986 19.8528 27.058C19.5203 27.0092 19.1722 27.0695 18.838 27.027C18.6885 27.008 18.5563 26.8537 18.4163 26.7607C18.5164 26.6259 18.589 26.4222 18.7218 26.3692C19.1165 26.2114 19.5364 26.1178 19.9434 25.9894C20.2137 25.9041 20.4979 25.8365 20.742 25.7001C21.1184 25.4899 21.1063 25.2146 20.7043 25.0473C20.3965 24.9192 20.0545 24.8433 19.7214 24.8118C19.0635 24.7496 18.4009 24.7396 17.7409 24.6965C17.535 24.683 17.3315 24.6319 17.1159 24.5357C18.4274 23.7045 20.1318 23.7957 21.3481 22.7877C21.3432 22.7139 21.3384 22.64 21.3337 22.5662C20.9682 22.4949 20.6045 22.3749 20.2369 22.3619C19.3077 22.3289 18.3767 22.353 17.4469 22.3344C17.1893 22.3292 16.9332 22.2547 16.6764 22.212C16.6523 22.1583 16.6284 22.1046 16.6043 22.0509C16.7759 21.9072 16.927 21.7202 17.1228 21.6277C17.8004 21.3076 18.5048 21.0433 19.177 20.7131C19.6712 20.4703 20.1432 20.1755 20.5988 19.8651C20.7335 19.7734 20.7787 19.5502 20.865 19.3872C20.7034 19.3296 20.5402 19.2191 20.3803 19.2237C19.7558 19.2418 19.1325 19.2979 18.5083 19.3359C18.367 19.3445 18.2246 19.3372 18.0549 19.2815C19.1029 18.55 20.4467 18.3008 21.3764 17.3901C21.3631 17.3192 21.3498 17.2484 21.3364 17.1776C20.6573 17.0946 19.9782 17.0114 19.2992 16.9284C19.2794 16.8625 19.2596 16.7967 19.2397 16.7307C19.4602 16.5547 19.6608 16.3418 19.9051 16.2099C20.4698 15.9052 21.0651 15.6567 21.6292 15.3507C21.9017 15.2028 22.1319 14.9768 22.3812 14.7861C22.3745 14.7283 22.3679 14.6705 22.3612 14.6127C22.1038 14.5598 21.8487 14.4814 21.5887 14.4594C21.1086 14.4187 20.6208 14.4448 20.1463 14.3749C19.927 14.3424 19.7313 14.1495 19.5249 14.0294C19.683 13.8332 19.8038 13.5712 20.0076 13.4558C20.3445 13.265 20.7346 13.1679 21.1028 13.0327C21.5506 12.8682 21.8333 12.6258 21.7252 12.071C21.6961 11.9215 21.8688 11.6652 22.02 11.5603C22.5801 11.1713 23.0988 10.7618 23.4051 10.0512C22.5231 9.74235 21.8086 10.4844 20.9051 10.2436C21.0186 10.0464 21.0733 9.82504 21.2135 9.73045C21.7126 9.39369 22.2571 9.12352 22.7525 8.78192C23.0877 8.55086 23.3693 8.24226 23.6748 7.96833C23.3618 7.73062 23.0505 7.49059 22.7351 7.25598C22.5039 7.08399 22.2675 6.91914 22.0334 6.75111C22.2667 6.60927 22.4985 6.46484 22.7336 6.32607C23.4536 5.90111 24.1838 5.49237 24.8899 5.0453C25.0777 4.9264 25.1926 4.69253 25.341 4.51144C25.3132 4.46645 25.2855 4.42145 25.2577 4.37646C24.8178 4.41962 24.3781 4.46276 23.9384 4.50592C23.9084 4.46202 23.8784 4.41814 23.8485 4.37425C23.9925 4.19394 24.1063 3.97286 24.2855 3.84004C25.3476 3.05286 25.7805 1.91783 26.0756 0.698774C26.1256 0.491896 26.1916 0.288871 26.2483 0.0420328C26.2939 3.72529e-09 26.3417 0 26.4251 0C26.594 0.495676 26.6999 1.00087 26.8689 1.48397C27.0011 1.86193 27.2268 2.20619 27.3814 2.57771C27.4666 2.7824 27.5784 3.03646 27.5262 3.22662C27.3638 3.81923 27.5485 4.25638 27.9539 4.67777C28.5981 5.3471 29.2141 6.04383 29.8327 6.73725C29.9494 6.86805 30.0448 7.02845 30.1115 7.19099C30.2358 7.49378 30.1366 7.64917 29.7938 7.56742C29.3775 7.46812 28.9679 7.33329 28.5473 7.26219C28.304 7.22104 28.0445 7.27505 27.7922 7.28624C27.7644 7.34343 27.7367 7.40061 27.7089 7.45779C27.9232 7.69655 28.1052 7.97914 28.3583 8.16504C28.9047 8.56625 29.5008 8.89931 30.05 9.29685C30.3654 9.52512 30.8943 9.74874 30.6967 10.1988C30.6117 10.3924 30.0037 10.4163 29.6353 10.4095C29.2373 10.4021 28.8416 10.2688 28.4449 10.1905C28.4113 10.2345 28.3777 10.2786 28.3441 10.3226C28.5111 10.4977 28.647 10.7378 28.8511 10.8357C29.4435 11.1194 30.0641 11.3439 30.672 11.5958C31.034 11.7458 31.4092 11.8746 31.7484 12.066C32.0834 12.2551 32.0495 12.5247 31.7 12.6453C31.2474 12.8014 30.768 12.8796 30.3013 12.9955C29.7451 13.1337 29.1901 13.2765 28.634 13.5051C29.7058 14.3202 30.8871 14.8907 31.8134 15.7964C31.7859 15.8629 31.7584 15.9293 31.7308 15.9958C31.392 15.9516 31.0539 15.9003 30.7141 15.8651C30.3422 15.8267 29.9685 15.7801 29.5962 15.7845C29.4465 15.7863 29.2984 15.9146 29.1494 15.9854C29.2397 16.1283 29.2966 16.3343 29.4263 16.4028C29.913 16.6602 30.4205 16.8796 30.926 17.0999C31.3734 17.295 31.8286 17.4724 32.2804 17.6577C32.2724 17.7254 32.2645 17.7932 32.2564 17.8609C31.9052 17.9156 31.555 17.9796 31.2024 18.0226C30.7776 18.0743 30.3477 18.0901 29.9264 18.1601C29.7903 18.1828 29.5894 18.3138 29.5725 18.4198C29.5547 18.5313 29.6925 18.7233 29.8127 18.7925C30.8475 19.3878 31.8616 20.0427 33.1142 20.0905C33.287 20.0971 33.458 20.1493 33.6299 20.1804C33.6406 20.2302 33.6512 20.2801 33.662 20.3299C33.305 20.4568 32.948 20.5833 32.5912 20.7107C32.1891 20.8543 31.7752 20.9735 31.3915 21.1558C31.2437 21.226 31.0909 21.4348 31.0789 21.5912C31.0705 21.701 31.2767 21.8915 31.4212 21.9366C31.8275 22.0635 32.2531 22.1268 32.6679 22.2282C33.0479 22.3212 33.4399 22.393 33.7971 22.5438C34.2045 22.7157 34.215 22.9924 33.8673 23.2737C33.7569 23.3629 33.6244 23.4241 33.5065 23.5048C33.3932 23.5822 33.2857 23.6682 33.057 23.8394C33.7042 23.9218 34.2238 23.9881 34.7434 24.0542C34.7622 24.1203 34.781 24.1864 34.7999 24.2525C34.5613 24.3972 34.338 24.5842 34.0809 24.6779C33.5825 24.8595 33.1947 25.1371 32.8208 25.5299C32.5646 25.799 32.0628 25.8444 31.6628 25.963C31.3682 26.0503 31.0606 26.0942 30.7616 26.2351C31.8152 27.0988 33.1394 26.442 34.2565 26.8603C34.272 26.9155 34.2874 26.9707 34.3027 27.0259C33.4987 27.4313 32.6948 27.8366 31.8907 28.2418C31.8959 28.3194 31.9013 28.3969 31.9066 28.4744C32.8479 28.7366 33.7893 28.9989 34.851 29.2946C34.1618 30.1293 33.1547 29.8577 32.4867 30.4943C33.5006 31.1834 34.7252 31.2376 35.7246 31.83C34.2412 31.9651 32.7671 31.4215 31.1444 31.8136C32.0033 33.0341 33.4618 33.1307 34.3916 34.0877C33.5622 34.0877 32.7327 34.0877 31.9031 34.0877C31.8878 34.1407 31.8723 34.1936 31.857 34.2465C32.1916 34.4558 32.5502 34.6358 32.8536 34.8834C33.1113 35.0939 33.3052 35.3824 33.5275 35.6365C33.2165 35.7379 32.9116 35.8978 32.5936 35.9301C31.5093 36.0404 30.4193 36.0943 29.3338 36.1947C28.9816 36.2272 28.5982 36.2673 28.2993 36.4316C28.0337 36.5774 27.7429 36.8724 27.6797 37.1507C27.5515 37.7155 27.5696 38.3137 27.525 38.9309C30.8631 39.5511 34.1386 40.1598 37.4141 40.7684C37.423 40.8195 37.4319 40.8708 37.4409 40.9219C31.2655 43.2174 25.09 45.5128 18.876 47.8253C16.9087 47.1435 14.9736 46.4613 13.0523 45.7426C8.87227 44.179 4.69911 42.5968 0.523374 41.0215C0.391764 40.9719 0.262868 40.915 0 40.807C1.03321 40.6105 1.93902 40.4344 2.8463 40.2663C4.63686 39.9346 6.42926 39.6126 8.21756 39.2692C8.37484 39.2389 8.6237 39.0909 8.63352 38.9801C8.72476 37.952 8.80429 36.9181 8.46721 35.8673C9.87992 36.0219 11.1578 34.9248 12.6372 35.4033C12.4365 35.8598 11.9016 36.1365 11.4709 36.046C10.8985 35.9257 10.6828 36.0525 10.5236 36.6033C10.3538 37.1909 10.3967 38.2999 10.6166 38.8267C11.3954 38.7068 12.2935 38.5673 13.1544 38.443C13.2757 38.5285 13.2712 38.6222 13.3154 38.7114C10.3158 39.4383 7.25059 40.1797 4.25097 40.9068C4.07808 40.9487 3.90579 40.9932 3.6014 41.0695C4.6285 41.434 5.54103 41.757 6.45305 42.0814C10.3693 43.4747 14.2864 44.8653 18.1997 46.2667C18.5842 46.4045 18.9223 46.4297 19.3253 46.2851C24.0441 44.5915 28.7706 42.919 33.495 41.2409C33.6269 41.194 33.7589 41.147 33.99 41.0647C31.7969 40.5466 29.7057 40.0526 27.6093 39.5575C27.5238 40.5665 27.5241 40.5654 28.4535 40.8136C28.7452 40.8916 29.0348 40.9778 29.4958 41.1086C28.901 41.2891 28.4352 41.3864 28.006 41.5695C26.9488 42.0205 25.915 42.0209 24.8572 41.5713C24.4248 41.3876 23.956 41.2895 23.3519 41.1064C23.8694 40.9668 24.218 40.8267 24.5777 40.7858C25.1854 40.7169 25.3643 40.348 25.3911 39.8142C25.4018 39.6011 25.4478 39.3897 25.4859 39.0892C25.4928 38.8486 25.4918 38.6964 25.4907 38.5442C25.4907 38.5442 25.4949 38.549 25.5228 38.5232C25.5247 38.299 25.4987 38.1005 25.4727 37.9022C25.4727 37.9022 25.4587 37.8748 25.4732 37.8141C25.3783 37.4838 25.2687 37.2141 25.1593 36.9443C25.1245 36.9375 25.0982 36.9188 25.058 36.8378C25.0005 36.77 24.965 36.7529 24.9295 36.7357C24.9295 36.7357 24.8874 36.7339 24.8605 36.7071C24.8035 36.6864 24.7736 36.6924 24.7437 36.6985C24.6621 36.7021 24.5805 36.7057 24.4398 36.6845C24.3228 36.6816 24.2648 36.7036 24.2068 36.7255ZM26.4256 15.7247C26.5754 15.889 26.7252 16.0534 26.8346 16.1733C27.3664 15.7764 27.8762 15.3959 28.3859 15.0154C28.3768 14.9916 28.3677 14.9676 28.3585 14.9438C27.4761 15.1116 26.5935 15.2796 25.711 15.4474C25.7165 15.4939 25.7221 15.5403 25.7276 15.5868C25.9356 15.6216 26.1435 15.6564 26.4256 15.7247ZM23.9221 21.4874C23.728 21.4178 23.5182 21.3749 23.3429 21.2728C23.0083 21.0781 22.7388 20.9982 22.5485 21.4528C22.4913 21.5895 22.34 21.6868 22.1638 21.8746C22.9888 21.9094 23.7254 22.167 24.5638 21.6823C24.2912 21.5894 24.1508 21.5416 23.9221 21.4874ZM29.5686 28.2039C30.1612 28.423 30.7536 28.6419 31.3813 28.8739C31.1061 28.5526 30.8564 28.2786 30.6267 27.9885C30.1995 27.4491 29.5552 27.4356 29.0409 28.0032C29.202 28.0649 29.3466 28.1201 29.5686 28.2039ZM26.7005 6.23033C26.8178 6.3378 26.9871 6.42339 27.0432 6.55663C27.2609 7.07316 27.5623 7.12419 28.0954 6.6813C27.5845 6.48661 27.1419 6.31798 26.7005 6.23033ZM21.1975 34.002C21.3897 34.0162 21.609 33.9757 21.7693 34.0549C22.2565 34.2952 22.4914 34.1191 22.6055 33.4934C22.1009 33.6476 21.6466 33.7864 21.1975 34.002Z" fill="#001F3F"/>
<path d="M9.36103 19.0473C9.62548 18.7765 10.9162 18.7064 11.1203 18.9531C11.1784 19.0232 11.1131 19.3134 11.0224 19.3691C10.5376 19.6673 10.0321 19.9335 9.52346 20.1903C9.13414 20.3867 8.72944 20.5527 8.33158 20.7322C8.34216 20.7774 8.35275 20.8228 8.36334 20.868C8.72234 20.8418 9.08113 20.8123 9.44038 20.7903C9.76117 20.7706 10.0838 20.7361 10.4029 20.7548C10.5397 20.7628 10.7524 20.8662 10.7801 20.9676C10.8105 21.0784 10.7031 21.2912 10.5927 21.3648C10.1783 21.6413 9.75151 21.9066 9.30419 22.1243C8.74316 22.3975 8.15304 22.6102 7.58436 22.8686C7.35302 22.9736 7.14503 23.1301 6.79945 23.3404C8.343 23.8425 9.85356 23.2368 11.2316 23.881C10.1527 24.905 8.62558 24.8236 7.41371 25.6045C7.80524 25.6293 8.19778 25.6439 8.58808 25.6815C9.20854 25.7413 9.83157 25.7932 10.4446 25.8998C10.6208 25.9305 10.7662 26.1379 10.9257 26.2643C10.7721 26.4182 10.6443 26.6335 10.4587 26.7123C10.1509 26.8427 9.79785 26.8621 9.47862 26.9714C9.14642 27.0851 8.83171 27.2498 8.50936 27.3923C8.52388 27.4706 8.5384 27.549 8.55291 27.6273C8.83505 27.6724 9.11582 27.7334 9.39974 27.7576C9.62926 27.7773 9.87105 27.713 10.0916 27.76C10.2768 27.7995 10.4392 27.946 10.6116 28.0451C10.4739 28.189 10.3595 28.4142 10.1941 28.4614C9.69988 28.6028 9.18506 28.6712 8.67961 28.7746C8.34866 28.8424 8.00735 28.8872 7.69342 29.0036C7.26691 29.1618 7.23014 29.4244 7.58877 29.7097C7.82382 29.8968 8.11045 30.0175 8.3639 30.1833C8.57867 30.3239 8.77898 30.4864 9.06781 30.7C8.13201 31.3124 7.08104 31.0143 6.22738 31.4336C6.22257 31.485 6.21776 31.5364 6.21295 31.5879C7.41734 31.7018 8.62172 31.8157 9.82612 31.9297C9.8338 31.9908 9.84149 32.052 9.84918 32.1132C9.74337 32.1838 9.64648 32.2881 9.53008 32.3191C9.16548 32.4162 8.96256 32.6069 8.88515 33.0033C8.8539 33.1634 8.58735 33.3089 8.39802 33.3967C8.24555 33.4674 8.03757 33.4102 7.8735 33.4663C7.68755 33.5298 7.52308 33.6562 7.34927 33.7553C7.49743 33.9142 7.61981 34.1595 7.79943 34.213C8.11361 34.3069 8.46256 34.2933 8.79765 34.3057C9.13958 34.3185 9.48235 34.3086 9.82475 34.3086C9.89325 34.4225 9.96176 34.5365 10.0303 34.6504C9.85466 34.7245 9.67558 34.7915 9.50411 34.8742C8.98046 35.1268 8.46093 35.3878 7.93623 35.6381C7.87812 35.6659 7.79639 35.6526 7.7267 35.6463C6.57003 35.5415 5.41278 35.4418 4.25785 35.3202C4.10097 35.3037 3.95586 35.1754 3.80529 35.0989C3.89347 34.9559 3.95099 34.7726 4.07575 34.6776C4.40825 34.4243 4.76968 34.2091 5.09104 33.8536C4.42026 33.8536 3.74948 33.8536 3.0787 33.8536C3.85067 33.084 4.98245 32.933 5.76647 32.0121C4.44281 31.6173 3.23364 32.1291 2.01296 31.9049C2.8779 31.5956 3.74282 31.2864 4.60775 30.9772C4.60563 30.9095 4.6035 30.8419 4.60139 30.7743C4.00444 30.566 3.4075 30.3577 2.68855 30.1068C3.4459 29.3729 4.41899 29.6508 5.23234 29.0883C4.48414 28.7057 3.82478 28.3685 3.04636 27.9705C4.10024 27.4964 5.1857 28.0909 6.10742 27.4304C5.46457 27.1901 4.86109 27.0252 4.31754 26.7443C3.77273 26.4627 3.28771 26.0655 2.78459 25.5765C3.19669 25.5248 3.6088 25.4731 4.14381 25.4061C3.94921 25.2572 3.81099 25.1722 3.69913 25.0607C3.55711 24.9192 3.4365 24.7563 3.30665 24.6025C3.47289 24.4814 3.62287 24.3043 3.80866 24.2502C4.23494 24.1261 4.68985 24.0963 5.11124 23.9604C5.37137 23.8765 5.59125 23.6677 5.82921 23.5152C5.61198 23.3485 5.41721 23.1271 5.17275 23.0269C4.70145 22.8337 4.20205 22.709 3.58344 22.5149C3.79463 22.4105 3.8649 22.3459 3.93563 22.3454C4.96536 22.3382 5.82222 21.8441 6.67934 21.3637C6.83055 21.279 6.92191 21.0875 7.0409 20.9452C6.8769 20.8604 6.72023 20.7255 6.54752 20.7003C5.99361 20.6194 5.43378 20.5791 4.86342 20.4539C5.61237 19.756 6.79654 19.8445 7.48071 18.9467C6.70418 18.515 5.96391 19.0562 5.17158 18.7305C6.03984 18.1471 6.9081 17.5638 7.89806 16.8987C7.47944 16.7637 7.16118 16.642 6.83295 16.5604C6.46973 16.4701 6.088 16.4468 5.73236 16.3363C5.49988 16.264 5.29946 16.0887 5.08467 15.9595C5.28668 15.8037 5.46801 15.5998 5.69506 15.5024C6.1529 15.3062 6.6512 15.202 7.10302 14.9949C7.44742 14.8369 7.74588 14.5789 8.06477 14.3653C8.03419 14.3143 8.00361 14.2633 7.97303 14.2123C7.52192 14.2715 7.07192 14.3581 6.61915 14.3763C6.43865 14.3836 6.25207 14.2395 6.06825 14.1642C6.16072 14.0009 6.21494 13.7863 6.35263 13.6835C6.81007 13.3425 7.30917 13.0575 7.76926 12.7196C8.06036 12.5059 8.31047 12.2362 8.63676 11.939C7.85916 11.4576 7.24301 12.1518 6.49415 11.9652C6.6377 11.7049 6.72665 11.4537 6.8891 11.2661C7.36859 10.7124 7.89741 10.2007 8.36466 9.63747C8.558 9.40443 8.80182 9.04523 8.74629 8.80812C8.62451 8.28805 8.81334 7.95828 9.07635 7.55755C9.26999 7.2625 9.27767 6.84781 9.3809 6.49009C9.44654 6.26256 9.53538 6.04173 9.66715 5.66571C9.96459 6.48941 10.1242 7.18874 10.4604 7.78917C10.7886 8.37534 11.2972 8.8605 11.8223 9.50789C11.3333 9.46337 10.9672 9.43005 10.601 9.39672C11.1417 10.3676 12.0845 10.7288 13.0459 11.1571C12.3216 11.7293 11.3024 11.7897 10.8202 12.7625C11.5322 12.7871 12.2568 12.4399 12.7821 13.2185C12.4914 13.4464 12.1533 13.6862 11.8486 13.9626C11.7176 14.0815 11.5568 14.2933 11.5806 14.4339C11.657 14.8857 11.4502 15.1114 11.0755 15.253C10.7756 15.3663 10.4491 15.4293 10.1754 15.5862C9.95201 15.7144 9.78932 15.9483 9.59969 16.1354C9.83102 16.2414 10.0535 16.3991 10.2958 16.4406C10.6268 16.4972 10.9744 16.448 11.3122 16.4764C11.597 16.5005 11.8779 16.5706 12.1758 16.7361C11.0103 17.6242 9.883 18.5247 8.16768 18.2212C8.63012 18.5612 8.98437 18.8216 9.36103 19.0473ZM7.24389 28.594C6.45971 28.3883 6.45174 28.3927 5.74883 29.439C6.30394 29.2485 6.81768 29.0761 7.32517 28.8868C7.34995 28.8775 7.31997 28.7215 7.24389 28.594ZM8.91711 11.4958C9.08195 11.2891 9.24678 11.0824 9.41161 10.8757C9.38542 10.8396 9.35923 10.8035 9.33304 10.7675C9.0128 10.9507 8.69258 11.1338 8.22494 11.4013C8.54564 11.4702 8.6996 11.5031 8.91711 11.4958Z" fill="#001F3F"/>
</svg>
