<svg enable-background="new 0 0 128 128" height="512" viewBox="0 0 128 128" width="512" xmlns="http://www.w3.org/2000/svg"><path d="m64 98c-6.6 0-12 5.4-12 12s5.4 12 12 12 12-5.4 12-12-5.4-12-12-12zm32-8c-6.6 0-12 5.4-12 12s5.4 12 12 12 12-5.4 12-12-5.4-12-12-12zm-64 0c-6.6 0-12 5.4-12 12s5.4 12 12 12 12-5.4 12-12-5.4-12-12-12z" fill="#324d5b"/><path d="m27.2 59.4c20.3-12.5 53.2-12.5 73.5 0s20.3 32.8 0 45.2c-20.3 12.5-53.2 12.5-73.5 0s-20.3-32.7 0-45.2z" fill="#e2574c"/><path d="m32.2 101.6c-19.6-12.1-20.3-31.4-2-43.9-1 .5-2 1.1-3 1.7-20.3 12.5-20.3 32.8 0 45.2 20.3 12.5 53.2 12.5 73.5 0 .7-.4 1.4-.9 2-1.3-20.4 10.8-51.2 10.2-70.5-1.7z" fill="#cb4e44"/><path d="m18.7 37.1c25-14.8 65.5-14.8 90.5 0s25 38.9 0 53.7-65.5 14.8-90.5 0-25-38.8 0-53.7z" fill="#324d5b"/><path d="m113.3 86.9c-25 14.8-65.5 14.8-90.5 0-20.2-12-24.1-29.9-11.8-44.2-16.9 14.8-14.3 35.1 7.7 48.2 25 14.8 65.5 14.8 90.5 0 4.8-2.9 8.7-6.1 11.7-9.5-2.2 1.9-4.7 3.7-7.6 5.5z" fill="#2d4552"/><path d="m64 6c22.1 0 40 17.9 40 40s-17.9 32-40 32-40-9.9-40-32 17.9-40 40-40z" fill="#e4e7e7"/><path d="m24 46c0 22 17.8 31.9 39.7 32h.3v-72c-22.1 0-40 17.9-40 40z" fill="#d8dbdb"/><path d="m64 78c9 0 17.3-1.6 24-5.1v-26.9c0-13.3-10.7-24-24-24s-24 10.7-24 24v26.9c6.7 3.5 15 5.1 24 5.1z" fill="#3db39e"/><path d="m40 46v26.9c6.6 3.4 14.9 5.1 23.8 5.1h.2v-56c-13.3 0-24 10.8-24 24z" fill="#3aaa96"/><path d="m64 38c6.6 0 12 5.4 12 12s-5.4 12-12 12-12-5.4-12-12 5.4-12 12-12z" fill="#fff"/><path d="m64 38c-6.6 0-12 5.4-12 12s5.4 12 12 12z" fill="#f2f2f2"/><path d="m64 44c3.3 0 6 2.7 6 6s-2.7 6-6 6-6-2.7-6-6 2.7-6 6-6z" fill="#324d5b"/><path d="m64 44c-3.3 0-6 2.7-6 6s2.7 6 6 6z" fill="#2f4956"/></svg>