<svg width="809" height="533" fill="none" xmlns="http://www.w3.org/2000/svg"><path d="M404.404 565.181s-.424.328-1.4.21c-8.999 2.522-17.025 5.164-25.054 7.805-1.405-.178-2.811-.358-4.673-1.499-2.083-1.693-3.709-2.425-5.333-3.156 0 0 .101-.057.101-.689a1576.56 1576.56 0 0 0-.055-6.073s.06.075.409-.117c.626-.688.902-1.187 1.177-1.684 0 0 .028.14.374.011.695-.574 1.044-1.019 1.394-1.462 0 0 .004.038.493.012 1.248-.6 2.01-1.175 2.77-1.748 3.446-2.279 6.89-4.557 10.336-6.834-.194-1.045-.39-2.092-.586-3.14-6.012-.241-12.22-1.563-17.996-.512-14.56 2.647-28.838 6.85-43.41 9.397-5.451.952-11.4-.959-19.034-1.767 8.68-14.071 25.76-10.323 34.669-24.129-8.24-.251-14.721-.225-21.164-.713-5.654-.426-11.515-.694-16.785-2.493-2.543-.868-3.936-5.098-5.85-7.807 2.503-1.725 4.824-3.882 7.567-5.04 2.171-.915 4.854-.743 7.319-.809 6.901-.186 11.241-2.658 12.318-10.379.386-2.767 3.838-5.469 6.457-7.456 2.266-1.72 5.333-2.387 8.063-4.749-19.922-7.929-41.992-2.375-61.887-9.361l-.347-2.712 47.708-9.238.541-3.586c-4.835-3.187-9.724-6.293-14.492-9.577-5.243-3.61-13.864-5.518-12.695-13.43 1.183-7.998 10.001-7.288 16.101-8.798 5.303-1.311 10.894-1.42 16.335-2.216 3.799-.557 7.971-.589 11.235-2.285 4.008-2.079 7.242-5.647 10.811-8.572-4.126-1.45-8.155-3.555-12.4-4.18-5.115-.751-10.47.177-15.612-.477-2.3-.292-4.333-2.667-6.487-4.098 1.54-2.075 2.657-5.21 4.7-6.025 6.07-2.429 12.532-3.869 18.793-5.847 4.158-1.311 8.531-2.353 12.286-4.45 5.791-3.235 5.603-7.472-.58-10.046-4.737-1.972-9.997-3.14-15.121-3.625-10.122-.957-20.317-1.111-30.469-1.774-3.167-.209-6.298-.994-9.615-2.474 20.177-12.792 46.396-11.39 65.109-26.903-.075-1.134-.149-2.271-.221-3.407-5.625-1.097-11.22-2.945-16.874-3.144-14.295-.508-28.617-.138-42.922-.423-3.964-.08-7.904-1.227-11.853-1.885-.371-.825-.739-1.652-1.11-2.478 2.64-2.211 4.965-5.091 7.977-6.513 10.425-4.926 21.261-8.993 31.603-14.075 7.603-3.736 14.864-8.275 21.871-13.05 2.074-1.411 2.77-4.846 4.096-7.356-2.486-.885-4.996-2.585-7.456-2.515-9.607.277-19.198 1.142-28.799 1.727-2.174.132-4.364.02-6.975-.837 16.123-11.257 36.796-15.092 51.099-29.109-.205-1.09-.409-2.179-.616-3.27l-31.34-3.834c-.307-1.014-.61-2.028-.916-3.042 3.392-2.709 6.479-5.985 10.237-8.015 8.687-4.689 17.846-8.513 26.524-13.224 4.192-2.275 7.732-5.754 11.569-8.687l-.308-2.669c-3.96-.814-7.884-2.021-11.884-2.359-7.386-.626-14.891-.225-22.192-1.302-3.372-.499-6.383-3.467-9.558-5.315 2.432-3.02 4.29-7.052 7.426-8.828 5.183-2.938 11.184-4.43 16.849-6.511 6.889-2.532 11.238-6.262 9.575-14.8-.448-2.301 2.209-6.245 4.535-7.861 8.617-5.985 16.597-12.288 21.309-23.224-13.571-4.752-24.561 6.667-38.461 2.963 1.746-3.035 2.588-6.442 4.745-7.898 7.678-5.182 16.055-9.34 23.676-14.597 5.157-3.556 9.489-8.305 14.189-12.521-4.815-3.658-9.604-7.352-14.457-10.962-3.556-2.647-7.193-5.184-10.795-7.77 3.589-2.183 7.155-4.405 10.772-6.541 11.077-6.54 22.311-12.83 33.173-19.71 2.89-1.83 4.657-5.429 6.94-8.216-.427-.692-.854-1.385-1.283-2.077l-20.296 1.992-1.382-2.026c2.216-2.775 3.966-6.177 6.723-8.221 16.34-12.114 23-29.582 27.54-48.342.769-3.184 1.784-6.308 2.656-10.107.702-.647 1.437-.647 2.72-.647 2.599 7.628 4.228 15.403 6.828 22.837 2.034 5.817 5.506 11.115 7.884 16.832 1.311 3.15 3.031 7.06 2.228 9.987-2.5 9.12.342 15.847 6.58 22.332 9.91 10.3 19.386 21.023 28.904 31.694 1.795 2.013 3.263 4.481 4.287 6.983 1.914 4.659.388 7.051-4.886 5.793-6.404-1.529-12.705-3.603-19.176-4.698-3.743-.633-7.737.198-11.617.37l-1.281 2.64c3.297 3.675 6.097 8.024 9.99 10.884 8.406 6.175 17.577 11.3 26.026 17.418 4.852 3.513 12.989 6.955 9.949 13.88-1.309 2.98-10.663 3.347-16.329 3.242-6.124-.112-12.212-2.164-18.313-3.369l-1.553 2.033c2.571 2.695 4.662 6.39 7.802 7.895 9.113 4.366 18.661 7.822 28.013 11.699 5.569 2.308 11.341 4.291 16.56 7.236 5.153 2.91 4.632 7.058-.745 8.914-6.965 2.403-14.338 3.605-21.518 5.39-8.557 2.127-17.095 4.323-25.65 7.841 16.489 12.546 34.662 21.325 48.913 35.263l-1.271 3.069c-5.212-.682-10.415-1.47-15.641-2.011-5.722-.591-11.471-1.308-17.199-1.241-2.303.028-4.583 2.002-6.873 3.092 1.389 2.199 2.264 5.369 4.258 6.424 7.489 3.961 15.297 7.336 23.072 10.727 6.884 3.003 13.887 5.733 20.838 8.583-.123 1.044-.245 2.087-.369 3.129-5.403.842-10.791 1.826-16.217 2.487-6.535.797-13.147 1.04-19.629 2.117-2.093.348-5.184 2.364-5.444 3.995-.274 1.718 1.844 4.673 3.695 5.737 15.918 9.162 31.521 19.24 50.791 19.976 2.659.101 5.29.903 7.933 1.383.166.767.329 1.533.493 2.301-5.49 1.953-10.982 3.9-16.472 5.859-6.186 2.211-12.553 4.046-18.458 6.85-2.272 1.081-4.623 4.295-4.807 6.702-.129 1.689 3.043 4.621 5.266 5.315 6.25 1.951 12.798 2.927 19.179 4.488 5.846 1.431 11.877 2.536 17.372 4.856 6.266 2.646 6.429 6.904 1.08 11.232-1.698 1.374-3.737 2.316-5.55 3.556-1.743 1.193-3.397 2.516-6.917 5.149 9.957 1.27 17.952 2.29 25.945 3.308.29 1.015.579 2.034.87 3.05-3.671 2.228-7.106 5.104-11.063 6.548-7.666 2.795-13.632 7.065-19.384 13.112-3.942 4.141-11.662 4.84-17.815 6.663-4.534 1.344-9.265 2.021-13.866 4.188 16.21 13.293 36.582 3.185 53.768 9.623.238.849.474 1.699.711 2.548-12.369 6.239-24.738 12.475-37.107 18.712.08 1.193.163 2.387.244 3.579l45.298 12.623c-10.603 12.845-26.097 8.666-36.375 18.462 15.598 10.604 34.438 11.439 49.813 20.556-22.82 2.079-45.497-6.287-70.462-.252 13.214 18.782 35.652 20.269 49.956 34.996h-38.283l-.711 2.444c5.149 3.221 10.666 5.991 15.333 9.802 3.965 3.239 6.948 7.679 10.368 11.589-4.785 1.561-9.475 4.02-14.368 4.519-16.682 1.697-33.45 2.527-50.149 4.072-5.419.5-11.317 1.117-15.915 3.644-4.086 2.245-8.56 6.785-9.532 11.068-1.974 8.692-1.694 17.896-2.38 27.396l152.136 28.278.411 2.362C512.997 665.087 417.992 700.412 322.394 736c-30.266-10.492-60.036-20.991-89.594-32.051-64.307-24.063-128.507-48.412-192.748-72.655-2.025-.763-4.008-1.639-8.052-3.301 15.895-3.026 29.83-5.736 43.788-8.321 27.547-5.105 55.122-10.062 82.633-15.346 2.42-.467 6.248-2.743 6.4-4.448 1.403-15.822 2.627-31.733-2.559-47.904 21.734 2.38 41.393-14.504 64.152-7.14-3.087 7.023-11.316 11.283-17.942 9.889-8.806-1.85-12.125.101-14.574 8.578-2.612 9.043-1.952 26.109 1.431 34.217 11.981-1.846 25.798-3.992 39.041-5.907 1.867 1.317 1.798 2.759 2.478 4.132-46.147 11.187-93.303 22.595-139.45 33.786-2.66.645-5.31 1.329-9.993 2.504 15.801 5.609 29.84 10.58 43.87 15.572 60.248 21.442 120.511 42.843 180.715 64.409 5.913 2.121 11.116 2.509 17.316.283 72.595-26.065 145.309-51.802 217.991-77.627 2.029-.721 4.06-1.446 7.615-2.711-33.739-7.973-65.912-15.576-98.163-23.195-1.316 15.528-1.31 15.509 12.988 19.331 4.487 1.2 8.943 2.526 16.035 4.539-9.151 2.778-16.317 4.276-22.92 7.093-16.264 6.941-32.17 6.947-48.442.028-6.652-2.827-13.864-4.338-23.158-7.156 7.962-2.148 13.325-4.303 18.858-4.932 9.35-1.061 12.102-6.738 12.514-14.953.165-3.281.872-6.532 1.457-11.157.108-3.702.091-6.045.075-8.387 0 0 .065.074.494-.325.029-3.45-.371-6.503-.771-9.556 0 0-.215-.421.008-1.355-1.461-5.083-3.146-9.235-4.829-13.385-.535-.107-.94-.394-1.558-1.639-.885-1.044-1.431-1.308-1.977-1.572 0 0-.648-.029-1.063-.44-.876-.318-1.336-.226-1.796-.132-1.255.054-2.51.111-4.675-.217-1.8-.045-2.692.294-3.585.632Zm34.134-323.189 6.293 6.905 23.866-17.82c-.14-.367-.28-.735-.422-1.101l-40.73 7.75.256 2.145c3.2.535 6.397 1.071 10.737 2.121Zm-38.513 88.684c-2.987-1.071-6.214-1.73-8.911-3.301-5.148-2.997-9.294-4.226-12.221 2.77-.88 2.103-3.208 3.599-5.92 6.491 12.693.534 24.025 4.5 36.922-2.961-4.192-1.43-6.354-2.164-9.87-2.999Zm86.867 103.364 27.885 10.311c-4.232-4.945-8.073-9.163-11.607-13.626-6.572-8.301-16.484-8.509-24.398.226 2.48.948 4.705 1.798 8.12 3.089ZM442.767 95.88c1.806 1.655 4.409 2.972 5.273 5.022 3.35 7.949 7.986 8.734 16.186 1.919-7.858-2.996-14.667-5.591-21.459-6.94ZM358.109 523.27c2.956.218 6.33-.405 8.796.812 7.495 3.7 11.109.99 12.865-8.641-7.763 2.373-14.752 4.511-21.661 7.829Z" fill="#001F3F"/><path d="M629.429 593.56s-.373.288-1.231.184c-7.913 2.216-14.969 4.537-22.029 6.857-1.235-.157-2.471-.315-4.108-1.317-1.831-1.487-3.261-2.13-4.689-2.773 0 0 .089-.05.089-.605-.016-2.149-.031-3.744-.049-5.336 0 0 .053.066.36-.103.551-.604.793-1.042 1.035-1.479 0 0 .024.123.328.01.612-.505.919-.895 1.226-1.285 0 0 .004.034.434.011 1.097-.527 1.767-1.033 2.435-1.536l9.088-6.004c-.17-.919-.343-1.838-.515-2.759-5.286-.212-10.744-1.373-15.823-.45-12.802 2.326-25.355 6.018-38.167 8.256-4.793.837-10.023-.843-16.735-1.552 7.631-12.362 22.648-9.07 30.481-21.2-7.244-.22-12.943-.197-18.608-.626-4.971-.374-10.124-.609-14.757-2.19-2.236-.763-3.461-4.479-5.144-6.859 2.201-1.516 4.242-3.411 6.654-4.428 1.908-.805 4.267-.653 6.434-.711 6.068-.164 9.884-2.336 10.831-9.119.339-2.431 3.374-4.805 5.677-6.551 1.992-1.511 4.689-2.097 7.089-4.172-17.516-6.966-36.92-2.087-54.413-8.225l-.305-2.382 41.946-8.117.476-3.15c-4.251-2.8-8.55-5.529-12.742-8.414-4.609-3.172-12.189-4.849-11.161-11.8 1.04-7.027 8.793-6.403 14.156-7.73 4.663-1.152 9.578-1.248 14.362-1.947 3.34-.489 7.008-.518 9.879-2.008 3.523-1.826 6.367-4.96 9.505-7.531-3.628-1.273-7.171-3.123-10.903-3.672-4.497-.66-9.206.156-13.726-.419-2.022-.257-3.81-2.343-5.704-3.601 1.354-1.822 2.336-4.577 4.132-5.293 5.338-2.134 11.019-3.399 16.524-5.137 3.656-1.152 7.5-2.067 10.802-3.91 5.091-2.842 4.926-6.564-.51-8.826-4.165-1.732-8.789-2.759-13.295-3.184-8.899-.841-17.863-.977-26.789-1.559-2.785-.184-5.537-.874-8.454-2.175 17.74-11.238 40.793-10.006 57.246-23.635-.066-.997-.131-1.996-.194-2.994-4.946-.964-9.865-2.588-14.836-2.762-12.569-.446-25.162-.122-37.738-.372-3.486-.07-6.95-1.078-10.423-1.656-.326-.725-.649-1.451-.975-2.177 2.321-1.943 4.365-4.473 7.014-5.722 9.165-4.328 18.693-7.902 27.785-12.366 6.685-3.283 13.07-7.27 19.231-11.466 1.823-1.24 2.434-4.258 3.6-6.463-2.185-.777-4.392-2.271-6.554-2.209-8.448.243-16.88 1.003-25.322 1.517-1.911.116-3.837.017-6.133-.736 14.176-9.89 32.353-13.26 44.928-25.574l-.541-2.874-27.556-3.368c-.269-.891-.535-1.782-.805-2.673 2.983-2.379 5.696-5.258 9.001-7.041 7.638-4.12 15.69-7.48 23.321-11.619 3.686-1.998 6.798-5.055 10.171-7.632l-.27-2.345c-3.482-.715-6.932-1.775-10.449-2.073-6.494-.55-13.092-.197-19.512-1.143-2.965-.438-5.612-3.047-8.404-4.671 2.139-2.652 3.773-6.195 6.529-7.755 4.557-2.581 9.834-3.893 14.814-5.721 6.057-2.224 9.881-5.501 8.419-13.003-.393-2.021 1.943-5.486 3.988-6.906 7.576-5.258 14.592-10.797 18.735-20.404-11.932-4.175-21.595 5.857-33.816 2.602 1.535-2.666 2.275-5.659 4.172-6.938 6.751-4.554 14.116-8.206 20.817-12.825 4.534-3.124 8.343-7.297 12.475-11-4.234-3.215-8.444-6.46-12.711-9.632-3.127-2.326-6.325-4.554-9.491-6.826 3.156-1.918 6.291-3.871 9.471-5.747 9.739-5.746 19.616-11.273 29.167-17.317 2.54-1.608 4.094-4.77 6.102-7.219-.376-.608-.751-1.216-1.129-1.825l-17.845 1.751-1.214-1.78c1.947-2.438 3.487-5.428 5.911-7.223 14.366-10.644 20.221-25.99 24.213-42.473.676-2.797 1.569-5.542 2.336-8.88.617-.568 1.263-.568 2.391-.568 2.285 6.702 3.717 13.533 6.003 20.065 1.789 5.11 4.842 9.764 6.933 14.788 1.152 2.767 2.664 6.202 1.958 8.774-2.198 8.012.301 13.923 5.785 19.62 8.714 9.05 17.045 18.471 25.414 27.846 1.578 1.769 2.869 3.937 3.77 6.135 1.682 4.094.34 6.195-4.296 5.09-5.631-1.343-11.172-3.166-16.861-4.127-3.291-.557-6.802.174-10.214.325l-1.126 2.32c2.898 3.228 5.36 7.049 8.784 9.562 7.39 5.425 15.453 9.928 22.882 15.303 4.266 3.087 11.42 6.11 8.747 12.194-1.151 2.619-9.375 2.941-14.356 2.849-5.385-.099-10.738-1.901-16.102-2.96l-1.365 1.786c2.26 2.368 4.099 5.614 6.859 6.937 8.013 3.836 16.408 6.872 24.63 10.278 4.897 2.028 9.972 3.77 14.56 6.358 4.531 2.556 4.073 6.2-.655 7.831-6.123 2.112-12.606 3.168-18.919 4.736-7.523 1.869-15.03 3.798-22.552 6.889 14.497 11.022 30.476 18.736 43.005 30.982l-1.117 2.696c-4.583-.599-9.157-1.291-13.752-1.767-5.031-.52-10.085-1.15-15.121-1.09-2.025.024-4.03 1.759-6.044 2.716 1.222 1.932 1.991 4.718 3.744 5.644 6.585 3.48 13.45 6.445 20.286 9.425 6.053 2.638 12.21 5.037 18.321 7.541-.108.916-.215 1.833-.325 2.749-4.75.739-9.487 1.604-14.258 2.185-5.746.7-11.559.914-17.258 1.86-1.841.306-4.558 2.077-4.787 3.51-.241 1.509 1.622 4.105 3.249 5.041 13.996 8.049 27.714 16.903 44.657 17.55 2.338.089 4.651.793 6.975 1.215.146.673.289 1.347.434 2.022-4.828 1.715-9.657 3.426-14.483 5.147-5.439 1.943-11.037 3.554-16.229 6.018-1.998.951-4.064 3.774-4.227 5.888-.113 1.485 2.676 4.061 4.63 4.67 5.496 1.715 11.253 2.572 16.864 3.943 5.14 1.258 10.442 2.228 15.273 4.267 5.51 2.324 5.653 6.066.95 9.868-1.493 1.207-3.286 2.035-4.88 3.124-1.533 1.048-2.987 2.211-6.082 4.525l22.812 2.905c.255.893.509 1.788.765 2.68-3.228 1.958-6.248 4.485-9.727 5.753-6.74 2.455-11.986 6.208-17.043 11.52-3.466 3.638-10.253 4.252-15.664 5.854-3.986 1.181-8.145 1.776-12.191 3.679 14.253 11.68 32.164 2.799 47.274 8.455.21.746.417 1.493.625 2.239l-32.625 16.44c.07 1.048.143 2.097.215 3.145 12.732 3.545 25.466 7.09 39.827 11.09-9.322 11.286-22.945 7.613-31.982 16.221 13.715 9.316 30.279 10.05 43.797 18.059-20.063 1.827-40.003-5.523-61.952-.221 11.618 16.502 31.346 17.808 43.923 30.747h-33.66c-.207.716-.417 1.432-.625 2.148 4.527 2.829 9.377 5.263 13.481 8.611 3.486 2.846 6.109 6.747 9.116 10.182-4.207 1.372-8.331 3.532-12.632 3.97-14.668 1.492-29.411 2.22-44.094 3.578-4.764.439-9.95.981-13.993 3.202-3.592 1.972-7.526 5.961-8.38 9.724-1.736 7.636-1.49 15.723-2.093 24.07 45.152 8.385 89.458 16.615 133.763 24.844l.361 2.076c-83.529 31.037-167.061 62.072-251.113 93.339-26.61-9.218-52.785-18.442-78.773-28.16-56.541-21.141-112.988-42.533-169.471-63.833-1.78-.67-3.523-1.44-7.079-2.9 13.976-2.658 26.228-5.039 38.5-7.311 24.22-4.485 48.464-8.84 72.653-13.483 2.128-.409 5.494-2.409 5.627-3.907 1.234-13.901 2.31-27.88-2.25-42.088 19.109 2.09 36.394-12.743 56.405-6.274-2.715 6.171-9.95 9.914-15.776 8.689-7.742-1.625-10.66.089-12.813 7.536-2.297 7.945-1.717 22.94 1.258 30.063 10.534-1.621 22.682-3.508 34.325-5.19 1.643 1.158 1.582 2.425 2.18 3.631-40.574 9.828-82.035 19.851-122.609 29.683-2.339.567-4.669 1.169-8.786 2.2 13.892 4.929 26.236 9.296 38.572 13.682 52.971 18.839 105.957 37.641 158.889 56.589 5.2 1.863 9.774 2.204 15.225.248 63.828-22.9 127.76-45.512 191.664-68.201l6.696-2.383c-29.665-7.005-57.952-13.684-86.308-20.378-1.158 13.642-1.152 13.626 11.419 16.983 3.946 1.055 7.863 2.22 14.099 3.989-8.046 2.44-14.346 3.756-20.152 6.232-14.3 6.097-28.285 6.103-42.591.024-5.849-2.484-12.19-3.812-20.362-6.287 7-1.888 11.716-3.781 16.581-4.334 8.22-.931 10.64-5.919 11.002-13.137.145-2.882.767-5.739 1.281-9.802.095-3.253.08-5.311.066-7.369 0 0 .057.065.435-.285.025-3.032-.326-5.714-.678-8.397 0 0-.189-.369.007-1.19-1.285-4.465-2.766-8.113-4.246-11.76-.471-.093-.827-.346-1.37-1.44-.778-.917-1.258-1.149-1.739-1.38 0 0-.569-.026-.934-.387-.77-.28-1.174-.199-1.579-.116-1.103.047-2.207.097-4.11-.191-1.583-.039-2.367.258-3.152.556Zm30.011-283.95 5.533 6.067c7.194-5.367 14.089-10.513 20.984-15.656-.123-.323-.246-.646-.371-.968l-35.811 6.809.225 1.885c2.813.47 5.624.941 9.44 1.863Zm-33.862 77.917c-2.625-.942-5.463-1.52-7.834-2.901-4.526-2.632-8.172-3.713-10.746 2.434-.773 1.848-2.82 3.163-5.205 5.703 11.161.469 21.124 3.954 32.464-2.601-3.686-1.256-5.587-1.901-8.679-2.635Zm76.376 90.814 24.518 9.059c-3.721-4.345-7.098-8.051-10.205-11.972-5.779-7.293-14.494-7.476-21.452.199 2.181.833 4.137 1.579 7.139 2.714Zm-38.796-297.102c1.588 1.453 3.877 2.611 4.637 4.412 2.945 6.984 7.022 7.674 14.231 1.686-6.909-2.633-12.896-4.913-18.868-6.098Zm-74.434 375.497c2.6.192 5.566-.356 7.735.714 6.59 3.25 9.767.869 11.31-7.592-6.825 2.085-12.97 3.963-19.045 6.878Z" fill="#001F3F"/><path d="M206.122 706.333s-.325.251-1.072.16c-6.89 1.93-13.035 3.951-19.182 5.971-1.076-.137-2.152-.274-3.578-1.147-1.594-1.295-2.839-1.855-4.083-2.414 0 0 .078-.044.078-.527-.015-1.871-.027-3.26-.043-4.646 0 0 .046.058.314-.089.479-.526.69-.908.901-1.288 0 0 .021.107.286.008.532-.439.8-.779 1.067-1.118 0 0 .004.029.378.009.955-.459 1.538-.899 2.12-1.337l7.914-5.228c-.148-.799-.299-1.6-.449-2.401-4.603-.185-9.355-1.196-13.778-.392-11.147 2.024-22.079 5.239-33.236 7.188-4.173.728-8.728-.734-14.572-1.352 6.645-10.763 19.722-7.897 26.543-18.457-6.309-.192-11.271-.172-16.204-.545-4.329-.326-8.816-.531-12.85-1.907-1.947-.664-3.015-3.9-4.48-5.972 1.917-1.32 3.694-2.97 5.794-3.856 1.662-.7 3.716-.568 5.603-.619 5.284-.142 8.607-2.033 9.431-7.939.296-2.116 2.939-4.184 4.944-5.703 1.735-1.317 4.083-1.826 6.173-3.633-15.252-6.065-32.15-1.817-47.382-7.161l-.266-2.074 36.527-7.067c.137-.915.275-1.829.414-2.743-3.702-2.438-7.445-4.814-11.095-7.326-4.014-2.761-10.615-4.221-9.72-10.273.906-6.118 7.657-5.575 12.327-6.73 4.061-1.003 8.341-1.087 12.507-1.695 2.908-.427 6.102-.451 8.602-1.749 3.068-1.59 5.544-4.319 8.277-6.557-3.159-1.108-6.244-2.719-9.494-3.197-3.916-.574-8.016.136-11.953-.365-1.761-.223-3.318-2.04-4.967-3.135 1.179-1.586 2.034-3.984 3.599-4.608 4.647-1.858 9.594-2.96 14.388-4.473 3.184-1.002 6.532-1.799 9.407-3.404 4.433-2.474 4.289-5.715-.444-7.685-3.627-1.508-7.654-2.401-11.578-2.772-7.749-.732-15.554-.85-23.327-1.357-2.425-.16-4.822-.761-7.362-1.893 15.448-9.785 35.522-8.713 49.85-20.579-.058-.868-.115-1.738-.17-2.606-4.306-.84-8.59-2.253-12.919-2.405-10.944-.389-21.91-.106-32.862-.324-3.035-.061-6.052-.938-9.075-1.442l-.85-1.895c2.022-1.692 3.801-3.895 6.108-4.982 7.981-3.769 16.278-6.88 24.195-10.767 5.821-2.858 11.381-6.33 16.746-9.983 1.588-1.079 2.12-3.707 3.135-5.627-1.903-.677-3.824-1.977-5.708-1.923-7.355.212-14.698.873-22.049 1.321-1.664.101-3.342.015-5.341-.641 12.344-8.611 28.172-11.545 39.123-22.267l-.471-2.501-23.995-2.932c-.235-.776-.467-1.552-.701-2.328 2.597-2.072 4.96-4.578 7.837-6.131 6.652-3.587 13.663-6.512 20.308-10.115 3.209-1.74 5.92-4.402 8.857-6.646l-.235-2.041c-3.032-.623-6.037-1.546-9.099-1.805-5.655-.479-11.401-.171-16.991-.995-2.582-.382-4.887-2.653-7.318-4.067 1.862-2.309 3.285-5.393 5.685-6.752 3.969-2.247 8.564-3.389 12.9-4.981 5.275-1.936 8.605-4.79 7.331-11.321-.342-1.76 1.692-4.777 3.473-6.013 6.597-4.578 12.707-9.4 16.314-17.765-10.39-3.635-18.804 5.1-29.446 2.266 1.337-2.321 1.981-4.928 3.632-6.041 5.879-3.964 12.292-7.145 18.128-11.166 3.948-2.72 7.265-6.353 10.863-9.578-3.687-2.798-7.353-5.624-11.068-8.386-2.724-2.024-5.508-3.965-8.265-5.943 2.748-1.67 5.478-3.37 8.247-5.004 8.481-5.002 17.081-9.814 25.398-15.077 2.212-1.399 3.565-4.152 5.313-6.284-.327-.53-.653-1.06-.982-1.589l-15.539 1.524-1.058-1.55c1.696-2.123 3.036-4.725 5.147-6.289 12.51-9.267 17.609-22.628 21.085-36.979.589-2.435 1.366-4.825 2.034-7.731.537-.495 1.1-.495 2.083-.495 1.989 5.835 3.236 11.782 5.227 17.469 1.557 4.45 4.216 8.502 6.036 12.876 1.004 2.409 2.321 5.4 1.706 7.639-1.914 6.976.261 12.122 5.038 17.083 7.587 7.879 14.842 16.081 22.129 24.244 1.375 1.54 2.499 3.428 3.283 5.341 1.465 3.565.297 5.394-3.741 4.432-4.903-1.169-9.728-2.756-14.682-3.594-2.866-.484-5.923.152-8.894.284l-.981 2.019c2.524 2.811 4.668 6.137 7.649 8.326 6.436 4.723 13.457 8.644 19.926 13.323 3.715 2.688 9.944 5.32 7.617 10.617-1.002 2.281-8.164 2.561-12.502 2.481-4.689-.086 10.279-36.966 5.608-37.888-.396.518-20.422 36.347-20.817 36.866 1.968 2.061 3.568 4.888 5.972 6.039 6.978 3.34 14.288 5.984 21.448 8.949 4.264 1.766 8.683 3.282 12.679 5.535 3.945 2.226 3.546 5.399-.571 6.819-5.332 1.838-10.977 2.758-16.474 4.123-6.551 1.627-13.089 3.307-19.639 5.998 12.625 9.597 26.539 16.313 37.449 26.975l-.973 2.347c-3.99-.522-7.974-1.124-11.975-1.539-4.38-.452-8.782-1-13.167-.948-1.764.021-3.509 1.531-5.263 2.365 1.064 1.682 1.734 4.107 3.26 4.913 5.734 3.03 11.712 5.612 17.665 8.206 5.271 2.297 10.632 4.385 15.954 6.566-.094.798-.187 1.596-.283 2.393-4.137.644-8.261 1.397-12.416 1.902-5.003.61-10.066.796-15.028 1.62-1.603.266-3.969 1.808-4.168 3.056-.21 1.314 1.412 3.574 2.829 4.389 12.187 7.008 24.133 14.717 38.887 15.28 2.035.077 4.049.691 6.073 1.058.127.586.252 1.173.378 1.76-4.204 1.494-8.409 2.983-12.611 4.482-4.737 1.691-9.612 3.094-14.132 5.239-1.74.828-3.54 3.286-3.681 5.127-.099 1.293 2.33 3.535 4.032 4.066 4.785 1.493 9.798 2.239 14.684 3.433 4.476 1.095 9.093 1.94 13.3 3.715 4.798 2.024 4.923 5.281.827 8.591-1.3 1.051-2.861 1.772-4.25 2.721-1.334.912-2.6 1.924-5.295 3.939 7.623.971 13.744 1.751 19.864 2.529.222.777.443 1.557.666 2.334-2.81 1.704-5.441 3.904-8.47 5.009-5.869 2.137-10.437 5.404-14.841 10.029-3.018 3.168-8.928 3.703-13.64 5.098-3.471 1.027-7.093 1.545-10.616 3.203 12.411 10.169 28.009 2.437 41.166 7.361.183.65.363 1.3.545 1.949-9.47 4.773-18.94 9.543-28.41 14.314.061.912.125 1.826.187 2.738 11.087 3.087 22.176 6.173 34.681 9.656-8.118 9.826-19.98 6.628-27.849 14.122 11.942 8.111 26.366 8.751 38.137 15.724-17.471 1.591-34.834-4.809-53.947-.193 10.117 14.368 27.296 15.505 38.248 26.771h-29.311c-.18.623-.363 1.247-.544 1.869 3.942 2.464 8.166 4.583 11.739 7.498 3.036 2.478 5.319 5.874 7.938 8.865-3.663 1.194-7.255 3.075-11 3.457-12.773 1.298-25.61 1.933-38.396 3.115-4.148.382-8.664.854-12.185 2.787-3.128 1.718-6.554 5.19-7.298 8.467-1.511 6.648-1.297 13.689-1.822 20.956l116.48 21.631.314 1.807C289.264 782.756 216.525 809.777 143.333 837c-23.172-8.026-45.965-16.057-68.595-24.518-49.235-18.406-98.389-37.032-147.573-55.576-1.55-.584-3.069-1.254-6.165-2.525 12.17-2.315 22.839-4.388 33.526-6.366 21.09-3.904 42.202-7.696 63.265-11.739 1.853-.356 4.784-2.097 4.9-3.402 1.074-12.103 2.011-24.274-1.96-36.644 16.64 1.82 31.692-11.095 49.118-5.462-2.364 5.373-8.665 8.631-13.738 7.565-6.742-1.415-9.282.078-11.158 6.562-2 6.917-1.494 19.972 1.096 26.173 9.173-1.411 19.751-3.053 29.89-4.518 1.43 1.008 1.377 2.111 1.898 3.161-35.331 8.557-71.435 17.284-106.767 25.844-2.036.494-4.065 1.017-7.65 1.916 12.097 4.291 22.845 8.093 33.588 11.912 46.127 16.402 92.266 32.772 138.359 49.269 4.528 1.622 8.511 1.919 13.258.217 55.581-19.938 111.252-39.626 166.899-59.381l5.83-2.074-75.155-17.743c-1.008 11.878-1.004 11.864 9.943 14.787 3.436.918 6.847 1.933 12.277 3.473-7.006 2.125-12.492 3.27-17.548 5.426-12.452 5.309-24.63 5.314-37.088.021-5.093-2.163-10.615-3.319-17.73-5.474 6.095-1.643 10.201-3.292 14.438-3.773 7.158-.811 9.265-5.154 9.581-11.438.126-2.509.667-4.997 1.115-8.534.082-2.833.069-4.624.058-6.416 0 0 .049.056.378-.249.022-2.639-.284-4.974-.59-7.31 0 0-.165-.321.006-1.036-1.119-3.888-2.409-7.064-3.698-10.239-.41-.081-.719-.302-1.193-1.254-.677-.798-1.095-1.001-1.513-1.202 0 0-.496-.022-.814-.337-.671-.243-1.023-.173-1.375-.101-.961.041-1.922.085-3.579-.166-1.379-.034-2.062.225-2.745.484Zm26.133-247.223c1.765 1.935 3.529 3.87 4.819 5.282l18.272-13.63c-.107-.282-.214-.563-.323-.843l-31.184 5.928.196 1.641c2.45.41 4.898.82 8.22 1.622Zm-29.486 67.839c-2.286-.819-4.758-1.323-6.822-2.525-3.941-2.292-7.116-3.233-9.357 2.119-.674 1.609-2.456 2.753-4.533 4.965 9.719.409 18.395 3.442 28.269-2.265-3.21-1.093-4.865-1.655-7.557-2.294Zm66.508 79.068 21.349 7.887c-3.24-3.782-6.181-7.009-8.886-10.423-5.032-6.35-12.621-6.509-18.68.173 1.899.725 3.602 1.375 6.217 2.363Zm-33.784-258.674c1.383 1.266 3.376 2.273 4.038 3.842 2.564 6.08 6.114 6.681 12.392 1.467-6.016-2.292-11.23-4.277-16.43-5.309Zm-64.816 326.929c2.264.167 4.847-.31 6.735.622 5.738 2.83 8.505.757 9.849-6.61-5.943 1.815-11.294 3.45-16.584 5.988Z" fill="#001F3F"/></svg>