<svg width="809" height="533" viewBox="0 0 809 533" fill="none" xmlns="http://www.w3.org/2000/svg">
<path d="M404.404 565.181C404.404 565.181 403.98 565.509 403.004 565.391C394.005 567.913 385.979 570.555 377.95 573.196C376.545 573.018 375.139 572.838 373.277 571.697C371.194 570.004 369.568 569.272 367.944 568.541C367.944 568.541 368.045 568.484 368.045 567.851C368.027 565.406 368.01 563.59 367.99 561.779C367.99 561.779 368.05 561.854 368.399 561.662C369.025 560.974 369.301 560.475 369.576 559.978C369.576 559.978 369.604 560.118 369.95 559.989C370.645 559.415 370.994 558.97 371.344 558.527C371.344 558.527 371.348 558.566 371.837 558.539C373.085 557.939 373.847 557.364 374.607 556.791C378.053 554.512 381.497 552.234 384.943 549.957C384.749 548.912 384.553 547.865 384.357 546.817C378.345 546.576 372.137 545.254 366.361 546.305C351.801 548.952 337.523 553.155 322.951 555.702C317.5 556.654 311.551 554.743 303.917 553.935C312.597 539.864 329.677 543.612 338.586 529.806C330.346 529.555 323.865 529.581 317.422 529.093C311.768 528.667 305.907 528.399 300.637 526.6C298.094 525.732 296.701 521.502 294.787 518.793C297.29 517.068 299.611 514.911 302.354 513.753C304.525 512.838 307.208 513.01 309.673 512.944C316.574 512.758 320.914 510.286 321.991 502.565C322.377 499.798 325.829 497.096 328.448 495.109C330.714 493.389 333.781 492.722 336.511 490.36C316.589 482.431 294.519 487.985 274.624 480.999C274.509 480.094 274.392 479.19 274.277 478.287C290.178 475.208 306.082 472.128 321.985 469.049C322.165 467.853 322.345 466.657 322.526 465.463C317.691 462.276 312.802 459.17 308.034 455.886C302.791 452.276 294.17 450.368 295.339 442.456C296.522 434.458 305.34 435.168 311.44 433.658C316.743 432.347 322.334 432.238 327.775 431.442C331.574 430.885 335.746 430.853 339.01 429.157C343.018 427.078 346.252 423.51 349.821 420.585C345.695 419.135 341.666 417.03 337.421 416.405C332.306 415.654 326.951 416.582 321.809 415.928C319.509 415.636 317.476 413.261 315.322 411.83C316.862 409.755 317.979 406.62 320.022 405.805C326.092 403.376 332.554 401.936 338.815 399.958C342.973 398.647 347.346 397.605 351.101 395.508C356.892 392.273 356.704 388.036 350.521 385.462C345.784 383.49 340.524 382.322 335.4 381.837C325.278 380.88 315.083 380.726 304.931 380.063C301.764 379.854 298.633 379.069 295.316 377.589C315.493 364.797 341.712 366.199 360.425 350.686C360.35 349.552 360.276 348.415 360.204 347.279C354.579 346.182 348.984 344.334 343.33 344.135C329.035 343.627 314.713 343.997 300.408 343.712C296.444 343.632 292.504 342.485 288.555 341.827C288.184 341.002 287.816 340.175 287.445 339.349C290.085 337.138 292.41 334.258 295.422 332.836C305.847 327.91 316.683 323.843 327.025 318.761C334.628 315.025 341.889 310.486 348.896 305.711C350.97 304.3 351.666 300.865 352.992 298.355C350.506 297.47 347.996 295.77 345.536 295.84C335.929 296.117 326.338 296.982 316.737 297.567C314.563 297.699 312.373 297.587 309.762 296.73C325.885 285.473 346.558 281.638 360.861 267.621C360.656 266.531 360.452 265.442 360.245 264.351C349.798 263.073 339.35 261.795 328.905 260.517C328.598 259.503 328.295 258.489 327.989 257.475C331.381 254.766 334.468 251.49 338.226 249.46C346.913 244.771 356.072 240.947 364.75 236.236C368.942 233.961 372.482 230.482 376.319 227.549C376.216 226.658 376.114 225.77 376.011 224.88C372.051 224.066 368.127 222.859 364.127 222.521C356.741 221.895 349.236 222.296 341.935 221.219C338.563 220.72 335.552 217.752 332.377 215.904C334.809 212.884 336.667 208.852 339.803 207.076C344.986 204.138 350.987 202.646 356.652 200.565C363.541 198.033 367.89 194.303 366.227 185.765C365.779 183.464 368.436 179.52 370.762 177.904C379.379 171.919 387.359 165.616 392.071 154.68C378.5 149.928 367.51 161.347 353.61 157.643C355.356 154.608 356.198 151.201 358.355 149.745C366.033 144.563 374.41 140.405 382.031 135.148C387.188 131.592 391.52 126.843 396.22 122.627C391.405 118.969 386.616 115.275 381.763 111.665C378.207 109.018 374.57 106.481 370.968 103.895C374.557 101.712 378.123 99.4895 381.74 97.3539C392.817 90.8142 404.051 84.524 414.913 77.6439C417.803 75.8141 419.57 72.215 421.853 69.4281C421.426 68.7356 420.999 68.0432 420.57 67.3509C413.804 68.0149 407.04 68.679 400.274 69.3432C399.814 68.6676 399.352 67.9921 398.892 67.3169C401.108 64.542 402.858 61.1397 405.615 59.0957C421.955 46.9815 428.615 29.5142 433.155 10.7537C433.924 7.56995 434.939 4.44553 435.811 0.64686C436.513 -1.14659e-07 437.248 0 438.531 0C441.13 7.62812 442.759 15.4028 445.359 22.8374C447.393 28.6538 450.865 33.9517 453.243 39.6692C454.554 42.8193 456.274 46.729 455.471 49.6556C452.971 58.7755 455.813 65.5028 462.051 71.9877C471.961 82.2884 481.437 93.0106 490.955 103.682C492.75 105.695 494.218 108.163 495.242 110.665C497.156 115.324 495.63 117.716 490.356 116.458C483.952 114.929 477.651 112.855 471.18 111.76C467.437 111.127 463.443 111.958 459.563 112.13C459.136 113.011 458.709 113.891 458.282 114.77C461.579 118.445 464.379 122.794 468.272 125.654C476.678 131.829 485.849 136.954 494.298 143.072C499.15 146.585 507.287 150.027 504.247 156.952C502.938 159.932 493.584 160.299 487.918 160.194C481.794 160.082 475.706 158.03 469.605 156.825C469.088 157.503 468.569 158.18 468.052 158.858C470.623 161.553 472.714 165.248 475.854 166.753C484.967 171.119 494.515 174.575 503.867 178.452C509.436 180.76 515.208 182.743 520.427 185.688C525.58 188.598 525.059 192.746 519.682 194.602C512.717 197.005 505.344 198.207 498.164 199.992C489.607 202.119 481.069 204.315 472.514 207.833C489.003 220.379 507.176 229.158 521.426 243.096C521.003 244.118 520.58 245.142 520.156 246.165C514.944 245.483 509.741 244.695 504.515 244.154C498.793 243.563 493.044 242.846 487.316 242.913C485.013 242.941 482.734 244.915 480.443 246.005C481.832 248.204 482.707 251.374 484.701 252.429C492.19 256.39 499.998 259.765 507.773 263.156C514.657 266.159 521.66 268.889 528.611 271.739C528.488 272.782 528.366 273.826 528.242 274.868C522.839 275.71 517.451 276.694 512.025 277.355C505.49 278.152 498.878 278.395 492.396 279.472C490.303 279.82 487.212 281.836 486.952 283.467C486.678 285.185 488.796 288.14 490.647 289.204C506.565 298.366 522.168 308.444 541.438 309.18C544.097 309.281 546.728 310.083 549.371 310.563C549.537 311.33 549.7 312.096 549.864 312.864C544.374 314.817 538.882 316.764 533.392 318.723C527.206 320.934 520.839 322.769 514.934 325.573C512.662 326.654 510.311 329.868 510.127 332.275C509.998 333.964 513.17 336.896 515.393 337.59C521.643 339.541 528.191 340.517 534.572 342.078C540.418 343.509 546.449 344.614 551.944 346.934C558.21 349.58 558.373 353.838 553.024 358.166C551.326 359.54 549.287 360.482 547.474 361.722C545.731 362.915 544.077 364.238 540.557 366.871C550.514 368.141 558.509 369.161 566.502 370.179C566.792 371.194 567.081 372.213 567.372 373.229C563.701 375.457 560.266 378.333 556.309 379.777C548.643 382.572 542.677 386.842 536.925 392.889C532.983 397.03 525.263 397.729 519.11 399.552C514.576 400.896 509.845 401.573 505.244 403.74C521.454 417.033 541.826 406.925 559.012 413.363C559.25 414.212 559.486 415.062 559.723 415.911C547.354 422.15 534.985 428.386 522.616 434.623C522.696 435.816 522.779 437.01 522.86 438.202C537.342 442.238 551.824 446.273 568.158 450.825C557.555 463.67 542.061 459.491 531.783 469.287C547.381 479.891 566.221 480.726 581.596 489.843C558.776 491.922 536.099 483.556 511.134 489.591C524.348 508.373 546.786 509.86 561.09 524.587C548.331 524.587 535.569 524.587 522.807 524.587C522.571 525.402 522.333 526.217 522.096 527.031C527.245 530.252 532.762 533.022 537.429 536.833C541.394 540.072 544.377 544.512 547.797 548.422C543.012 549.983 538.322 552.442 533.429 552.941C516.747 554.638 499.979 555.468 483.28 557.013C477.861 557.513 471.963 558.13 467.365 560.657C463.279 562.902 458.805 567.442 457.833 571.725C455.859 580.417 456.139 589.621 455.453 599.121C506.807 608.666 557.198 618.033 607.589 627.399C607.726 628.185 607.863 628.973 608 629.761C512.997 665.087 417.992 700.412 322.394 736C292.128 725.508 262.358 715.009 232.8 703.949C168.493 679.886 104.293 655.537 40.0517 631.294C38.027 630.531 36.044 629.655 32 627.993C47.8953 624.967 61.8304 622.257 75.7884 619.672C103.335 614.567 130.91 609.61 158.421 604.326C160.841 603.859 164.669 601.583 164.821 599.878C166.224 584.056 167.448 568.145 162.262 551.974C183.996 554.353 203.655 537.47 226.414 544.834C223.327 551.857 215.098 556.117 208.472 554.723C199.666 552.873 196.347 554.824 193.898 563.301C191.286 572.344 191.946 589.41 195.329 597.518C207.31 595.672 221.127 593.526 234.37 591.611C236.237 592.928 236.168 594.37 236.848 595.743C190.701 606.93 143.545 618.338 97.3982 629.529C94.7383 630.174 92.0879 630.858 87.4049 632.033C103.206 637.642 117.245 642.613 131.275 647.605C191.523 669.047 251.786 690.448 311.99 712.014C317.903 714.135 323.106 714.523 329.306 712.297C401.901 686.232 474.615 660.495 547.297 634.67C549.326 633.949 551.357 633.224 554.912 631.959C521.173 623.986 489 616.383 456.749 608.764C455.433 624.292 455.439 624.273 469.737 628.095C474.224 629.295 478.68 630.621 485.772 632.634C476.621 635.412 469.455 636.91 462.852 639.727C446.588 646.668 430.682 646.674 414.41 639.755C407.758 636.928 400.546 635.417 391.252 632.599C399.214 630.451 404.577 628.296 410.11 627.667C419.46 626.606 422.212 620.929 422.624 612.714C422.789 609.433 423.496 606.182 424.081 601.557C424.189 597.855 424.172 595.512 424.156 593.17C424.156 593.17 424.221 593.244 424.65 592.845C424.679 589.395 424.279 586.342 423.879 583.288C423.879 583.288 423.664 582.868 423.887 581.934C422.426 576.851 420.741 572.699 419.058 568.549C418.523 568.442 418.118 568.155 417.5 566.91C416.615 565.866 416.069 565.602 415.523 565.338C415.523 565.338 414.875 565.309 414.46 564.898C413.584 564.58 413.124 564.672 412.664 564.766C411.409 564.82 410.154 564.877 407.989 564.549C406.189 564.504 405.297 564.843 404.404 565.181ZM438.538 241.992C440.842 244.52 443.147 247.05 444.831 248.897C453.013 242.789 460.856 236.931 468.697 231.077C468.557 230.71 468.417 230.342 468.275 229.976C454.7 232.558 441.122 235.142 427.545 237.726C427.63 238.441 427.716 239.155 427.801 239.871C431.001 240.406 434.198 240.942 438.538 241.992ZM400.025 330.676C397.038 329.605 393.811 328.946 391.114 327.375C385.966 324.378 381.82 323.149 378.893 330.145C378.013 332.248 375.685 333.744 372.973 336.636C385.666 337.17 396.998 341.136 409.895 333.675C405.703 332.245 403.541 331.511 400.025 330.676ZM486.892 434.04C496.009 437.411 505.122 440.78 514.777 444.351C510.545 439.406 506.704 435.188 503.17 430.725C496.598 422.424 486.686 422.216 478.772 430.951C481.252 431.899 483.477 432.748 486.892 434.04ZM442.767 95.8805C444.573 97.5346 447.176 98.8516 448.04 100.902C451.39 108.851 456.026 109.636 464.226 102.821C456.368 99.8247 449.559 97.2296 442.767 95.8805ZM358.109 523.269C361.065 523.487 364.439 522.864 366.905 524.081C374.4 527.781 378.014 525.071 379.77 515.44C372.007 517.813 365.018 519.951 358.109 523.269Z" fill="#01060A"/>
<path d="M629.429 593.56C629.429 593.56 629.056 593.848 628.198 593.744C620.285 595.96 613.229 598.281 606.169 600.601C604.934 600.444 603.698 600.286 602.061 599.284C600.23 597.797 598.8 597.154 597.372 596.511C597.372 596.511 597.461 596.461 597.461 595.906C597.445 593.757 597.43 592.162 597.412 590.57C597.412 590.57 597.465 590.636 597.772 590.467C598.323 589.863 598.565 589.425 598.807 588.988C598.807 588.988 598.831 589.111 599.136 588.998C599.747 588.493 600.054 588.103 600.361 587.713C600.361 587.713 600.365 587.747 600.795 587.724C601.892 587.197 602.562 586.691 603.23 586.188C606.26 584.186 609.288 582.185 612.318 580.184C612.148 579.265 611.975 578.346 611.803 577.425C606.517 577.213 601.059 576.052 595.98 576.975C583.178 579.301 570.625 582.993 557.813 585.231C553.02 586.068 547.79 584.389 541.078 583.679C548.709 571.317 563.726 574.609 571.559 562.479C564.315 562.259 558.616 562.282 552.951 561.853C547.98 561.479 542.827 561.244 538.194 559.663C535.958 558.9 534.733 555.183 533.05 552.804C535.251 551.288 537.292 549.393 539.704 548.376C541.612 547.571 543.971 547.723 546.138 547.665C552.206 547.501 556.022 545.33 556.969 538.546C557.308 536.115 560.343 533.741 562.646 531.995C564.638 530.484 567.335 529.898 569.735 527.823C552.219 520.857 532.815 525.736 515.322 519.598C515.221 518.803 515.118 518.009 515.017 517.216C528.997 514.51 542.981 511.805 556.963 509.099C557.121 508.049 557.28 506.998 557.439 505.949C553.188 503.149 548.889 500.42 544.697 497.535C540.088 494.363 532.508 492.686 533.536 485.735C534.576 478.708 542.329 479.332 547.692 478.005C552.355 476.853 557.27 476.757 562.054 476.058C565.394 475.569 569.062 475.54 571.933 474.05C575.456 472.224 578.3 469.09 581.438 466.519C577.81 465.246 574.267 463.396 570.535 462.847C566.038 462.187 561.329 463.003 556.809 462.428C554.787 462.171 552.999 460.085 551.105 458.827C552.459 457.005 553.441 454.25 555.237 453.534C560.575 451.4 566.256 450.135 571.761 448.397C575.417 447.245 579.261 446.33 582.563 444.487C587.654 441.645 587.489 437.923 582.053 435.661C577.888 433.929 573.264 432.902 568.758 432.477C559.859 431.636 550.895 431.5 541.969 430.918C539.184 430.734 536.432 430.044 533.515 428.743C551.255 417.505 574.308 418.737 590.761 405.108C590.695 404.111 590.63 403.112 590.567 402.114C585.621 401.15 580.702 399.526 575.731 399.352C563.162 398.906 550.569 399.23 537.993 398.98C534.507 398.91 531.043 397.902 527.57 397.324C527.244 396.599 526.921 395.873 526.595 395.147C528.916 393.204 530.96 390.674 533.609 389.425C542.774 385.097 552.302 381.523 561.394 377.059C568.079 373.776 574.464 369.789 580.625 365.593C582.448 364.353 583.059 361.335 584.225 359.13C582.04 358.353 579.833 356.859 577.671 356.921C569.223 357.164 560.791 357.924 552.349 358.438C550.438 358.554 548.512 358.455 546.216 357.702C560.392 347.812 578.569 344.442 591.144 332.128C590.964 331.17 590.784 330.213 590.603 329.254C581.417 328.132 572.232 327.009 563.047 325.886C562.778 324.995 562.512 324.104 562.242 323.213C565.225 320.834 567.938 317.955 571.243 316.172C578.881 312.052 586.933 308.692 594.564 304.553C598.25 302.555 601.362 299.498 604.735 296.921C604.645 296.138 604.555 295.358 604.465 294.576C600.983 293.861 597.533 292.801 594.016 292.503C587.522 291.953 580.924 292.306 574.504 291.36C571.539 290.922 568.892 288.313 566.1 286.689C568.239 284.037 569.873 280.494 572.629 278.934C577.186 276.353 582.463 275.041 587.443 273.213C593.5 270.989 597.324 267.712 595.862 260.21C595.469 258.189 597.805 254.724 599.85 253.304C607.426 248.046 614.442 242.507 618.585 232.9C606.653 228.725 596.99 238.757 584.769 235.502C586.304 232.836 587.044 229.843 588.941 228.564C595.692 224.01 603.057 220.358 609.758 215.739C614.292 212.615 618.101 208.442 622.233 204.739C617.999 201.524 613.789 198.279 609.522 195.107C606.395 192.781 603.197 190.553 600.031 188.281C603.187 186.363 606.322 184.41 609.502 182.534C619.241 176.788 629.118 171.261 638.669 165.217C641.209 163.609 642.763 160.447 644.771 157.998C644.395 157.39 644.02 156.782 643.642 156.173C637.694 156.757 631.746 157.34 625.797 157.924C625.393 157.33 624.987 156.737 624.583 156.144C626.53 153.706 628.07 150.716 630.494 148.921C644.86 138.277 650.715 122.931 654.707 106.448C655.383 103.651 656.276 100.906 657.043 97.5683C657.66 97 658.306 97 659.434 97C661.719 103.702 663.151 110.533 665.437 117.065C667.226 122.175 670.279 126.829 672.37 131.853C673.522 134.62 675.034 138.055 674.328 140.627C672.13 148.639 674.629 154.55 680.113 160.247C688.827 169.297 697.158 178.718 705.527 188.093C707.105 189.862 708.396 192.03 709.297 194.228C710.979 198.322 709.637 200.423 705.001 199.318C699.37 197.975 693.829 196.152 688.14 195.191C684.849 194.634 681.338 195.365 677.926 195.516C677.55 196.289 677.176 197.062 676.8 197.836C679.698 201.064 682.16 204.885 685.584 207.398C692.974 212.823 701.037 217.326 708.466 222.701C712.732 225.788 719.886 228.811 717.213 234.895C716.062 237.514 707.838 237.836 702.857 237.744C697.472 237.645 692.119 235.843 686.755 234.784C686.3 235.379 685.845 235.974 685.39 236.57C687.65 238.938 689.489 242.184 692.249 243.507C700.262 247.343 708.657 250.379 716.879 253.785C721.776 255.813 726.851 257.555 731.439 260.143C735.97 262.699 735.512 266.343 730.784 267.974C724.661 270.086 718.178 271.142 711.865 272.71C704.342 274.579 696.835 276.508 689.313 279.599C703.81 290.621 719.789 298.335 732.318 310.581C731.946 311.479 731.574 312.378 731.201 313.277C726.618 312.678 722.044 311.986 717.449 311.51C712.418 310.99 707.364 310.36 702.328 310.42C700.303 310.444 698.298 312.179 696.284 313.136C697.506 315.068 698.275 317.854 700.028 318.78C706.613 322.26 713.478 325.225 720.314 328.205C726.367 330.843 732.524 333.242 738.635 335.746C738.527 336.662 738.42 337.579 738.31 338.495C733.56 339.234 728.823 340.099 724.052 340.68C718.306 341.38 712.493 341.594 706.794 342.54C704.953 342.846 702.236 344.617 702.007 346.05C701.766 347.559 703.629 350.155 705.256 351.091C719.252 359.14 732.97 367.994 749.913 368.641C752.251 368.73 754.564 369.434 756.888 369.856C757.034 370.529 757.177 371.203 757.322 371.878C752.494 373.593 747.665 375.304 742.839 377.025C737.4 378.968 731.802 380.58 726.61 383.043C724.612 383.994 722.546 386.817 722.383 388.931C722.27 390.416 725.059 392.992 727.013 393.601C732.509 395.316 738.266 396.173 743.877 397.544C749.017 398.802 754.319 399.772 759.15 401.811C764.66 404.136 764.803 407.877 760.1 411.679C758.607 412.886 756.814 413.714 755.22 414.803C753.687 415.851 752.233 417.014 749.138 419.328C757.893 420.443 764.922 421.339 771.95 422.233C772.205 423.126 772.459 424.021 772.715 424.913C769.487 426.871 766.467 429.398 762.988 430.666C756.248 433.121 751.002 436.874 745.945 442.186C742.479 445.824 735.692 446.438 730.281 448.04C726.295 449.221 722.136 449.816 718.09 451.719C732.343 463.399 750.254 454.518 765.364 460.174C765.574 460.92 765.781 461.667 765.989 462.413C755.114 467.894 744.239 473.373 733.364 478.853C733.434 479.901 733.507 480.95 733.579 481.998C746.311 485.543 759.045 489.088 773.406 493.088C764.084 504.374 750.461 500.701 741.424 509.309C755.139 518.625 771.703 519.359 785.221 527.368C765.158 529.195 745.218 521.845 723.269 527.147C734.887 543.649 754.615 544.955 767.192 557.894C755.973 557.894 744.753 557.894 733.532 557.894C733.325 558.61 733.115 559.326 732.907 560.042C737.434 562.871 742.284 565.305 746.388 568.653C749.874 571.499 752.497 575.4 755.504 578.835C751.297 580.207 747.173 582.367 742.872 582.805C728.204 584.297 713.461 585.025 698.778 586.383C694.014 586.822 688.829 587.364 684.785 589.585C681.193 591.557 677.259 595.546 676.405 599.309C674.669 606.945 674.915 615.032 674.312 623.379C719.464 631.764 763.77 639.994 808.075 648.223C808.196 648.914 808.316 649.606 808.436 650.299C724.907 681.336 641.375 712.371 557.323 743.638C530.713 734.42 504.538 725.196 478.55 715.478C422.009 694.337 365.562 672.945 309.079 651.645C307.299 650.975 305.556 650.205 302 648.745C315.976 646.087 328.228 643.706 340.5 641.434C364.72 636.949 388.964 632.594 413.153 627.951C415.281 627.542 418.647 625.542 418.78 624.044C420.014 610.143 421.09 596.164 416.53 581.956C435.639 584.046 452.924 569.213 472.935 575.682C470.22 581.853 462.985 585.596 457.159 584.371C449.417 582.746 446.499 584.46 444.346 591.907C442.049 599.852 442.629 614.847 445.604 621.97C456.138 620.349 468.286 618.462 479.929 616.78C481.572 617.938 481.511 619.205 482.109 620.411C441.535 630.239 400.074 640.262 359.5 650.094C357.161 650.661 354.831 651.263 350.714 652.294C364.606 657.223 376.95 661.59 389.286 665.976C442.257 684.814 495.243 703.617 548.175 722.565C553.375 724.428 557.949 724.769 563.4 722.813C627.228 699.913 691.16 677.301 755.064 654.612C756.848 653.978 758.634 653.341 761.76 652.229C732.095 645.224 703.808 638.545 675.452 631.851C674.294 645.493 674.3 645.477 686.871 648.834C690.817 649.889 694.734 651.054 700.97 652.823C692.924 655.263 686.624 656.579 680.818 659.055C666.518 665.152 652.533 665.158 638.227 659.079C632.378 656.595 626.037 655.267 617.865 652.792C624.865 650.904 629.581 649.011 634.446 648.458C642.666 647.527 645.086 642.539 645.448 635.321C645.593 632.439 646.215 629.582 646.729 625.519C646.824 622.266 646.809 620.208 646.795 618.15C646.795 618.15 646.852 618.215 647.23 617.865C647.255 614.833 646.904 612.151 646.552 609.468C646.552 609.468 646.363 609.099 646.559 608.278C645.274 603.813 643.793 600.165 642.313 596.518C641.842 596.425 641.486 596.172 640.943 595.078C640.165 594.161 639.685 593.929 639.205 593.698C639.205 593.698 638.635 593.672 638.27 593.311C637.5 593.031 637.096 593.112 636.691 593.195C635.588 593.242 634.484 593.292 632.581 593.004C630.998 592.965 630.214 593.262 629.429 593.56ZM659.44 309.61C661.466 311.831 663.492 314.054 664.973 315.677C672.167 310.31 679.062 305.164 685.957 300.021C685.834 299.698 685.711 299.375 685.586 299.053C673.651 301.322 661.712 303.592 649.775 305.862C649.85 306.491 649.925 307.118 650 307.747C652.813 308.217 655.624 308.688 659.44 309.61ZM625.578 387.527C622.953 386.585 620.115 386.007 617.744 384.626C613.218 381.994 609.572 380.913 606.998 387.06C606.225 388.908 604.178 390.223 601.793 392.763C612.954 393.232 622.917 396.717 634.257 390.162C630.571 388.906 628.67 388.261 625.578 387.527ZM701.954 478.341C709.97 481.303 717.983 484.263 726.472 487.4C722.751 483.055 719.374 479.349 716.267 475.428C710.488 468.135 701.773 467.952 694.815 475.627C696.996 476.46 698.952 477.206 701.954 478.341ZM663.158 181.239C664.746 182.692 667.035 183.85 667.795 185.651C670.74 192.635 674.817 193.325 682.026 187.337C675.117 184.704 669.13 182.424 663.158 181.239ZM588.724 556.736C591.324 556.928 594.29 556.38 596.459 557.45C603.049 560.7 606.226 558.319 607.769 549.858C600.944 551.943 594.799 553.821 588.724 556.736Z" fill="#01060A"/>
<path d="M206.122 706.333C206.122 706.333 205.797 706.584 205.05 706.493C198.16 708.423 192.015 710.444 185.868 712.464C184.792 712.327 183.716 712.19 182.291 711.317C180.696 710.022 179.451 709.462 178.207 708.903C178.207 708.903 178.285 708.859 178.285 708.376C178.27 706.505 178.258 705.116 178.242 703.73C178.242 703.73 178.288 703.788 178.556 703.641C179.035 703.115 179.246 702.733 179.457 702.353C179.457 702.353 179.478 702.46 179.743 702.361C180.275 701.922 180.543 701.582 180.81 701.243C180.81 701.243 180.814 701.272 181.188 701.252C182.143 700.793 182.726 700.353 183.308 699.915C185.947 698.172 188.584 696.429 191.222 694.687C191.074 693.888 190.923 693.087 190.773 692.286C186.17 692.101 181.418 691.09 176.995 691.894C165.848 693.918 154.916 697.133 143.759 699.082C139.586 699.81 135.031 698.348 129.187 697.73C135.832 686.967 148.909 689.833 155.73 679.273C149.421 679.081 144.459 679.101 139.526 678.728C135.197 678.402 130.71 678.197 126.676 676.821C124.729 676.157 123.661 672.921 122.196 670.849C124.113 669.529 125.89 667.879 127.99 666.993C129.652 666.293 131.706 666.425 133.593 666.374C138.877 666.232 142.2 664.341 143.024 658.435C143.32 656.319 145.963 654.251 147.968 652.732C149.703 651.415 152.051 650.906 154.141 649.099C138.889 643.034 121.991 647.282 106.759 641.938C106.671 641.246 106.581 640.555 106.493 639.864C118.667 637.508 130.844 635.152 143.02 632.797C143.157 631.882 143.295 630.968 143.434 630.054C139.732 627.616 135.989 625.24 132.339 622.728C128.325 619.967 121.724 618.507 122.619 612.455C123.525 606.337 130.276 606.88 134.946 605.725C139.007 604.722 143.287 604.638 147.453 604.03C150.361 603.603 153.555 603.579 156.055 602.281C159.123 600.691 161.599 597.962 164.332 595.724C161.173 594.616 158.088 593.005 154.838 592.527C150.922 591.953 146.822 592.663 142.885 592.162C141.124 591.939 139.567 590.122 137.918 589.027C139.097 587.441 139.952 585.043 141.517 584.419C146.164 582.561 151.111 581.459 155.905 579.946C159.089 578.943 162.437 578.147 165.312 576.542C169.745 574.068 169.601 570.827 164.868 568.857C161.241 567.349 157.214 566.456 153.29 566.085C145.541 565.353 137.736 565.235 129.963 564.728C127.538 564.568 125.141 563.967 122.601 562.835C138.049 553.05 158.123 554.122 172.451 542.256C172.393 541.388 172.336 540.518 172.281 539.65C167.975 538.81 163.691 537.397 159.362 537.245C148.418 536.856 137.452 537.139 126.5 536.921C123.465 536.86 120.448 535.983 117.425 535.479C117.141 534.848 116.859 534.216 116.575 533.584C118.597 531.892 120.376 529.689 122.683 528.602C130.664 524.833 138.961 521.722 146.878 517.835C152.699 514.977 158.259 511.505 163.624 507.852C165.212 506.773 165.744 504.145 166.759 502.225C164.856 501.548 162.935 500.248 161.051 500.302C153.696 500.514 146.353 501.175 139.002 501.623C137.338 501.724 135.66 501.638 133.661 500.982C146.005 492.371 161.833 489.437 172.784 478.715C172.627 477.882 172.471 477.049 172.313 476.214C164.314 475.237 156.315 474.259 148.318 473.282C148.083 472.506 147.851 471.73 147.617 470.954C150.214 468.882 152.577 466.376 155.454 464.823C162.106 461.236 169.117 458.311 175.762 454.708C178.971 452.968 181.682 450.306 184.619 448.062C184.54 447.381 184.463 446.701 184.384 446.021C181.352 445.398 178.347 444.475 175.285 444.216C169.63 443.737 163.884 444.045 158.294 443.221C155.712 442.839 153.407 440.568 150.976 439.154C152.838 436.845 154.261 433.761 156.662 432.402C160.63 430.155 165.225 429.013 169.561 427.421C174.836 425.485 178.166 422.631 176.892 416.1C176.55 414.34 178.584 411.323 180.365 410.087C186.962 405.509 193.071 400.687 196.679 392.322C186.289 388.687 177.875 397.422 167.233 394.588C168.57 392.267 169.214 389.66 170.865 388.547C176.744 384.583 183.157 381.402 188.993 377.381C192.941 374.661 196.258 371.028 199.856 367.803C196.169 365.005 192.503 362.179 188.788 359.417C186.064 357.393 183.28 355.452 180.523 353.474C183.271 351.804 186.001 350.104 188.77 348.47C197.251 343.468 205.851 338.656 214.168 333.393C216.38 331.994 217.733 329.241 219.481 327.109C219.154 326.579 218.828 326.049 218.499 325.52C213.319 326.028 208.14 326.536 202.96 327.044C202.607 326.527 202.254 326.01 201.902 325.494C203.598 323.371 204.938 320.769 207.049 319.205C219.559 309.938 224.658 296.577 228.134 282.226C228.723 279.791 229.5 277.401 230.168 274.495C230.705 274 231.268 274 232.251 274C234.24 279.835 235.487 285.782 237.478 291.469C239.035 295.919 241.694 299.971 243.514 304.345C244.518 306.754 245.835 309.745 245.22 311.984C243.306 318.96 245.481 324.106 250.258 329.067C257.845 336.946 265.1 345.148 272.387 353.311C273.762 354.851 274.886 356.739 275.67 358.652C277.135 362.217 275.967 364.046 271.929 363.084C267.026 361.915 262.201 360.328 257.247 359.49C254.381 359.006 251.324 359.642 248.353 359.774C248.026 360.447 247.699 361.12 247.372 361.793C249.896 364.604 252.04 367.93 255.021 370.119C261.457 374.842 268.478 378.763 274.947 383.442C278.662 386.13 284.891 388.762 282.564 394.059C281.562 396.34 274.4 396.62 270.062 396.54C265.373 396.454 280.341 359.574 275.67 358.652C275.274 359.17 255.248 394.999 254.853 395.518C256.821 397.579 258.421 400.406 260.825 401.557C267.803 404.897 275.113 407.541 282.273 410.506C286.537 412.272 290.956 413.788 294.952 416.041C298.897 418.267 298.498 421.44 294.381 422.86C289.049 424.698 283.404 425.618 277.907 426.983C271.356 428.61 264.818 430.29 258.268 432.981C270.893 442.578 284.807 449.294 295.717 459.956C295.393 460.737 295.069 461.52 294.744 462.303C290.754 461.781 286.77 461.179 282.769 460.764C278.389 460.312 273.987 459.764 269.602 459.816C267.838 459.837 266.093 461.347 264.339 462.181C265.403 463.863 266.073 466.288 267.599 467.094C273.333 470.124 279.311 472.706 285.264 475.3C290.535 477.597 295.896 479.685 301.218 481.866C301.124 482.664 301.031 483.462 300.935 484.259C296.798 484.903 292.674 485.656 288.519 486.161C283.516 486.771 278.453 486.957 273.491 487.781C271.888 488.047 269.522 489.589 269.323 490.837C269.113 492.151 270.735 494.411 272.152 495.226C284.339 502.234 296.285 509.943 311.039 510.506C313.074 510.583 315.088 511.197 317.112 511.564C317.239 512.15 317.364 512.737 317.49 513.324C313.286 514.818 309.081 516.307 304.879 517.806C300.142 519.497 295.267 520.9 290.747 523.045C289.007 523.873 287.207 526.331 287.066 528.172C286.967 529.465 289.396 531.707 291.098 532.238C295.883 533.731 300.896 534.477 305.782 535.671C310.258 536.766 314.875 537.611 319.082 539.386C323.88 541.41 324.005 544.667 319.909 547.977C318.609 549.028 317.048 549.749 315.659 550.698C314.325 551.61 313.059 552.622 310.364 554.637C317.987 555.608 324.108 556.388 330.228 557.166C330.45 557.943 330.671 558.723 330.894 559.5C328.084 561.204 325.453 563.404 322.424 564.509C316.555 566.646 311.987 569.913 307.583 574.538C304.565 577.706 298.655 578.241 293.943 579.636C290.472 580.663 286.85 581.181 283.327 582.839C295.738 593.008 311.336 585.276 324.493 590.2C324.676 590.85 324.856 591.5 325.038 592.149C315.568 596.922 306.098 601.692 296.628 606.463C296.689 607.375 296.753 608.289 296.815 609.201C307.902 612.288 318.99 615.374 331.496 618.857C323.378 628.683 311.516 625.485 303.647 632.979C315.589 641.09 330.013 641.73 341.784 648.703C324.313 650.294 306.95 643.894 287.837 648.51C297.954 662.878 315.133 664.015 326.085 675.281C316.316 675.281 306.545 675.281 296.774 675.281C296.594 675.904 296.411 676.528 296.23 677.15C300.172 679.614 304.396 681.733 307.969 684.648C311.005 687.126 313.288 690.522 315.907 693.513C312.244 694.707 308.652 696.588 304.907 696.97C292.134 698.268 279.297 698.903 266.511 700.085C262.363 700.467 257.847 700.939 254.326 702.872C251.198 704.59 247.772 708.062 247.028 711.339C245.517 717.987 245.731 725.028 245.206 732.295C284.524 739.596 323.105 746.762 361.686 753.926C361.79 754.528 361.895 755.13 362 755.733C289.264 782.756 216.525 809.777 143.333 837C120.161 828.974 97.3681 820.943 74.7379 812.482C25.5028 794.076 -23.651 775.45 -72.8354 756.906C-74.3856 756.322 -75.9038 755.652 -79 754.381C-66.8302 752.066 -56.1611 749.993 -45.4745 748.015C-24.3843 744.111 -3.27232 740.319 17.7912 736.276C19.6438 735.92 22.575 734.179 22.6908 732.874C23.7653 720.771 24.7022 708.6 20.7317 696.23C37.3716 698.05 52.4233 685.135 69.8486 690.768C67.4846 696.141 61.1843 699.399 56.1112 698.333C49.3691 696.918 46.8285 698.411 44.9534 704.895C42.9533 711.812 43.4587 724.867 46.0488 731.068C55.2219 729.657 65.8003 728.015 75.9393 726.55C77.3692 727.558 77.3162 728.661 77.8368 729.711C42.5058 738.268 6.40167 746.995 -28.9295 755.555C-30.966 756.049 -32.9952 756.572 -36.5806 757.471C-24.4828 761.762 -13.7345 765.564 -2.99222 769.383C43.1347 785.785 89.2738 802.155 135.367 818.652C139.895 820.274 143.878 820.571 148.625 818.869C204.206 798.931 259.877 779.243 315.524 759.488C317.078 758.936 318.632 758.382 321.354 757.414C295.523 751.315 270.89 745.5 246.199 739.671C245.191 751.549 245.195 751.535 256.142 754.458C259.578 755.376 262.989 756.391 268.419 757.931C261.413 760.056 255.927 761.201 250.871 763.357C238.419 768.666 226.241 768.671 213.783 763.378C208.69 761.215 203.168 760.059 196.053 757.904C202.148 756.261 206.254 754.612 210.491 754.131C217.649 753.32 219.756 748.977 220.072 742.693C220.198 740.184 220.739 737.696 221.187 734.159C221.269 731.326 221.256 729.535 221.245 727.743C221.245 727.743 221.294 727.799 221.623 727.494C221.645 724.855 221.339 722.52 221.033 720.184C221.033 720.184 220.868 719.863 221.039 719.148C219.92 715.26 218.63 712.084 217.341 708.909C216.931 708.828 216.622 708.607 216.148 707.655C215.471 706.857 215.053 706.654 214.635 706.453C214.635 706.453 214.139 706.431 213.821 706.116C213.15 705.873 212.798 705.943 212.446 706.015C211.485 706.056 210.524 706.1 208.867 705.849C207.488 705.815 206.805 706.074 206.122 706.333ZM232.255 459.11C234.02 461.045 235.784 462.98 237.074 464.392C243.338 459.72 249.343 455.24 255.346 450.762C255.239 450.48 255.132 450.199 255.023 449.919C244.63 451.894 234.234 453.871 223.839 455.847C223.904 456.395 223.97 456.941 224.035 457.488C226.485 457.898 228.933 458.308 232.255 459.11ZM202.769 526.949C200.483 526.13 198.011 525.626 195.947 524.424C192.006 522.132 188.831 521.191 186.59 526.543C185.916 528.152 184.134 529.296 182.057 531.508C191.776 531.917 200.452 534.95 210.326 529.243C207.116 528.15 205.461 527.588 202.769 526.949ZM269.277 606.017C276.257 608.596 283.234 611.173 290.626 613.904C287.386 610.122 284.445 606.895 281.74 603.481C276.708 597.131 269.119 596.972 263.06 603.654C264.959 604.379 266.662 605.029 269.277 606.017ZM235.493 347.343C236.876 348.609 238.869 349.616 239.531 351.185C242.095 357.265 245.645 357.866 251.923 352.652C245.907 350.36 240.693 348.375 235.493 347.343ZM170.677 674.272C172.941 674.439 175.524 673.962 177.412 674.894C183.15 677.724 185.917 675.651 187.261 668.284C181.318 670.099 175.967 671.734 170.677 674.272Z" fill="#01060A"/>
</svg>
