<svg width="16" height="12" viewBox="0 0 16 12" fill="none" xmlns="http://www.w3.org/2000/svg">
<path d="M15.6704 2.15287C15.4859 1.46753 14.9456 0.927174 14.2602 0.742661C13.0082 0.399994 7.99997 0.399994 7.99997 0.399994C7.99997 0.399994 2.99175 0.399994 1.7397 0.729482C1.06754 0.913995 0.514001 1.46753 0.329488 2.15287C0 3.40492 0 6.00129 0 6.00129C0 6.00129 0 8.61083 0.329488 9.8497C0.514001 10.535 1.05436 11.0754 1.7397 11.2599C3.00493 11.6026 7.99997 11.6026 7.99997 11.6026C7.99997 11.6026 13.0082 11.6026 14.2602 11.2731C14.9456 11.0886 15.4859 10.5482 15.6704 9.86289C15.9999 8.61083 15.9999 6.01447 15.9999 6.01447C15.9999 6.01447 16.0131 3.40492 15.6704 2.15287Z" fill="#1A1A1A"/>
<path d="M6.40527 8.39994L10.57 6.00127L6.40527 3.6026V8.39994Z" fill="white"/>
</svg>
