<svg width="925" height="63" viewBox="0 0 925 63" fill="none" xmlns="http://www.w3.org/2000/svg">
<rect x="187.312" y="0.575195" width="6.9375" height="54.4375" fill="#01060A"/>
<rect x="367.688" y="0.575195" width="6.9375" height="54.4375" fill="#01060A"/>
<rect x="548.062" y="0.575195" width="6.9375" height="54.4375" fill="#01060A"/>
<rect x="728.438" y="0.575195" width="6.9375" height="54.4375" fill="#01060A"/>
<rect x="74" y="43.4502" width="37" height="18.5" fill="#01060A"/>
<rect x="265.938" y="43.4502" width="37" height="18.5" fill="#01060A"/>
<rect x="444" y="43.4502" width="37" height="18.5" fill="#01060A"/>
<rect x="631.312" y="43.4502" width="37" height="18.5" fill="#01060A"/>
<rect x="811.688" y="43.4502" width="37" height="18.5" fill="#01060A"/>
<line x1="194.141" y1="1.09538" x2="368.141" y2="52.0954" stroke="#01060A"/>
<path d="M193.5 52.5752L367.859 1.09551" stroke="#01060A"/>
<line x1="374.142" y1="1.09591" x2="549.142" y2="53.0959" stroke="#01060A"/>
<line x1="373.858" y1="53.0959" x2="548.858" y2="1.09591" stroke="#01060A"/>
<path d="M554.5 1.0752L729.143 52.0962" stroke="#01060A"/>
<line x1="554.859" y1="52.0954" x2="728.859" y2="1.09538" stroke="#01060A"/>
<line x1="0.866045" y1="53.0935" x2="187.866" y2="1.09347" stroke="#01060A"/>
<line x1="735.133" y1="1.09311" x2="924.133" y2="53.0931" stroke="#01060A"/>
<rect x="1" y="53" width="924" height="10" fill="#01060A"/>
<rect x="187.312" y="0.575195" width="6.9375" height="54.4375" fill="#01060A"/>
<rect x="367.688" y="0.575195" width="6.9375" height="54.4375" fill="#01060A"/>
<rect x="548.062" y="0.575195" width="6.9375" height="54.4375" fill="#01060A"/>
<rect x="728.438" y="0.575195" width="6.9375" height="54.4375" fill="#01060A"/>
<rect x="74" y="43.4502" width="37" height="18.5" fill="#01060A"/>
<rect x="265.938" y="43.4502" width="37" height="18.5" fill="#01060A"/>
<rect x="444" y="43.4502" width="37" height="18.5" fill="#01060A"/>
<rect x="631.312" y="43.4502" width="37" height="18.5" fill="#01060A"/>
<rect x="811.688" y="43.4502" width="37" height="18.5" fill="#01060A"/>
<line x1="194.141" y1="1.09538" x2="368.141" y2="52.0954" stroke="#01060A"/>
<path d="M193.5 52.5752L367.859 1.09551" stroke="#01060A"/>
<line x1="374.142" y1="1.09591" x2="549.142" y2="53.0959" stroke="#01060A"/>
<line x1="373.858" y1="53.0959" x2="548.858" y2="1.09591" stroke="#01060A"/>
<path d="M554.5 1.0752L729.143 52.0962" stroke="#01060A"/>
<line x1="554.859" y1="52.0954" x2="728.859" y2="1.09538" stroke="#01060A"/>
<line x1="0.866045" y1="53.0935" x2="187.866" y2="1.09347" stroke="#01060A"/>
<line x1="735.133" y1="1.09311" x2="924.133" y2="53.0931" stroke="#01060A"/>
</svg>
