<svg width="1406" height="309" viewBox="0 0 1406 309" fill="none" xmlns="http://www.w3.org/2000/svg">
<path d="M17.6347 199.453C9.33813 195.067 0.642578 182.461 0.642578 182.461L46.6213 105.497L119.588 101.998C189.155 6.4426 269.518 -1.78693 301.004 6.04278C315.797 86.4056 243.863 161.804 206.047 189.458L202.049 262.924L125.085 306.904C125.085 306.904 112.712 297.848 108.593 289.412C99.0864 269.941 125.085 236.436 125.085 236.436L71.6097 184.46C71.6097 184.46 36.9753 209.677 17.6347 199.453Z" fill="white"/>
<path d="M22.938 298.867C15.1112 303.289 6.35373 294.762 10.5655 286.82L53.3913 206.067C56.2023 200.766 63.3158 199.651 67.6144 203.836L104.372 239.627C108.671 243.812 107.745 250.953 102.521 253.904L22.938 298.867Z" fill="url(#paint0_linear_292_46)"/>
<circle cx="251.031" cy="55.2661" r="26.4877" fill="#1A1A1A"/>
<path d="M547.335 145.828H495.118L485.339 121.903H419.07L409.291 145.828H357.074L419.545 3.41784H484.864L547.335 145.828ZM469.484 82.9779L452.204 40.4446L434.925 82.9779H469.484Z" fill="white"/>
<path d="M596.18 80.5095C596.18 88.5477 598.3 94.7505 602.541 99.1178C606.782 103.422 613.269 105.574 622.004 105.574C639.22 105.574 647.828 97.219 647.828 80.5095V3.41784H696.817V83.1678C696.817 96.2696 693.716 107.821 687.513 117.821C681.31 127.821 672.544 135.575 661.214 141.081C649.948 146.525 636.878 149.246 622.004 149.246C607.193 149.246 594.123 146.493 582.794 140.986C571.527 135.48 562.761 127.758 556.495 117.821C550.292 107.821 547.191 96.2696 547.191 83.1678V3.41784H596.18V80.5095Z" fill="white"/>
<path d="M762.833 98.9279C763.529 103.105 766.409 106.365 771.473 108.707C776.536 111.049 783.404 112.22 792.075 112.22C808.151 112.22 816.19 108.992 816.19 102.536C816.19 100.004 814.86 98.0101 812.202 96.5544C809.544 95.0353 804.733 94.0543 797.771 93.6112L774.226 92.0922C753.339 90.6997 738.022 86.2375 728.275 78.7056C718.528 71.1736 713.654 60.8884 713.654 47.85C713.654 37.4698 716.629 28.7036 722.578 21.5515C728.591 14.3993 737.073 9.01933 748.022 5.4116C759.036 1.80387 771.947 0 786.758 0C800.936 0 813.595 1.99375 824.734 5.98124C835.874 9.96874 844.672 15.6019 851.128 22.8806C857.647 30.1594 861.255 38.5458 861.951 48.0398H812.202C811.633 44.5587 809.101 41.8687 804.607 39.9699C800.113 38.0078 793.847 37.0268 785.809 37.0268C770.871 37.0268 763.403 40.0016 763.403 45.9511C763.403 48.3563 764.669 50.2868 767.2 51.7425C769.732 53.135 774.163 54.0527 780.492 54.4958L807.075 56.2047C820.937 57.0908 832.171 59.1479 840.779 62.3758C849.387 65.5405 855.685 69.9711 859.672 75.6675C863.723 81.3006 865.749 88.3579 865.749 96.8392C865.749 107.219 862.647 116.397 856.444 124.372C850.242 132.284 841.507 138.423 830.241 142.79C818.975 147.094 805.936 149.246 791.125 149.246C775.808 149.246 762.264 147.158 750.491 142.98C738.782 138.803 729.667 132.917 723.148 125.321C716.629 117.726 713.274 108.928 713.084 98.9279H762.833Z" fill="white"/>
<path d="M1022.53 3.41784V47.0904H971.266V145.828H922.277V47.0904H871.009V3.41784H1022.53Z" fill="white"/>
<path d="M1086.87 3.41784V145.828H1037.88V3.41784H1086.87Z" fill="white"/>
<path d="M1109.65 3.41784H1172.88L1228.32 89.5288V3.41784H1275.79V145.828H1214.46L1157.12 56.7744V145.828H1109.65V3.41784Z" fill="white"/>
<path d="M418.029 261.201H501.956V304.874H369.039V162.463H418.029V261.201ZM695.682 304.874H643.465L633.686 280.949H567.417L557.638 304.874H505.421L567.892 162.463H633.211L695.682 304.874ZM617.831 242.023L600.552 199.49L583.272 242.023H617.831ZM744.527 239.555C744.527 247.593 746.647 253.796 750.888 258.163C755.129 262.467 761.616 264.619 770.351 264.619C787.567 264.619 796.175 256.264 796.175 239.555V162.463H845.164V242.213C845.164 255.315 842.063 266.866 835.86 276.866C829.657 286.867 820.891 294.62 809.561 300.127C798.295 305.57 785.225 308.291 770.351 308.291C755.54 308.291 742.47 305.538 731.141 300.032C719.874 294.525 711.108 286.803 704.842 276.866C698.639 266.866 695.538 255.315 695.538 242.213V162.463H744.527V239.555ZM866.178 162.463H929.409L984.854 248.574V162.463H1032.32V304.874H970.993L913.649 215.819V304.874H866.178V162.463ZM1218.81 243.162C1217.29 256.137 1212.83 267.53 1205.42 277.341C1198.02 287.151 1188.18 294.778 1175.9 300.221C1163.68 305.601 1149.82 308.291 1134.31 308.291C1117.54 308.291 1102.76 305.19 1089.98 298.987C1077.19 292.784 1067.28 284.05 1060.26 272.784C1053.3 261.517 1049.82 248.479 1049.82 233.668C1049.82 218.858 1053.3 205.819 1060.26 194.553C1067.28 183.287 1077.19 174.552 1089.98 168.349C1102.76 162.146 1117.54 159.045 1134.31 159.045C1149.82 159.045 1163.68 161.767 1175.9 167.21C1188.18 172.59 1198.02 180.185 1205.42 189.996C1212.83 199.806 1217.29 211.199 1218.81 224.174H1169.63C1167.92 216.769 1164.03 211.041 1157.95 206.99C1151.94 202.876 1144.06 200.819 1134.31 200.819C1127.03 200.819 1120.74 202.148 1115.42 204.806C1110.17 207.401 1106.15 211.167 1103.36 216.104C1100.58 221.041 1099.18 226.896 1099.18 233.668C1099.18 240.441 1100.58 246.295 1103.36 251.232C1106.15 256.169 1110.17 259.967 1115.42 262.625C1120.74 265.22 1127.03 266.518 1134.31 266.518C1144.25 266.518 1152.19 264.587 1158.14 260.726C1164.09 256.802 1167.92 250.947 1169.63 243.162H1218.81ZM1284.36 162.463V210.503H1345.12V162.463H1394.11V304.874H1345.12V253.796H1284.36V304.874H1235.37V162.463H1284.36Z" fill="white"/>
<defs>
<linearGradient id="paint0_linear_292_46" x1="84.8931" y1="221.513" x2="-3.83097" y2="314.019" gradientUnits="userSpaceOnUse">
<stop stop-color="#F9C61F"/>
<stop offset="1" stop-color="#CE6F04"/>
</linearGradient>
</defs>
</svg>
