<svg xmlns="http://www.w3.org/2000/svg" version="1.1" xmlns:xlink="http://www.w3.org/1999/xlink" width="512" height="512" x="0" y="0" viewBox="0 0 512 512" style="enable-background:new 0 0 512 512" xml:space="preserve" class=""><g><path d="M436.3 75.7C388 27.401 324.101 0 256 0 115.343 0 0 115.116 0 256c0 140.958 115.075 256 256 256 140.306 0 256-114.589 256-256 0-68.101-27.4-132.001-75.7-180.3zM256 451c-107.786 0-195-86.985-195-195 0-42.001 13.2-81.901 37.5-114.901l272.401 272.1C337.899 437.8 298.001 451 256 451zm157.2-80.101L141.099 98.5C174.101 74.2 213.999 61 256 61c107.789 0 195 86.985 195 195 0 41.999-13.2 81.899-37.8 114.899z" fill="#1a1a1a" opacity="1" data-original="#000000" class=""></path></g></svg>