<svg width="20" height="20" viewBox="0 0 20 20" fill="none" xmlns="http://www.w3.org/2000/svg">
<path d="M15 3.73342C13.6739 2.40734 11.8754 1.66235 10 1.66235C8.12466 1.66235 6.32611 2.40734 5.00002 3.73342C3.67394 5.0595 2.92896 6.85806 2.92896 8.73342C2.92896 10.6088 3.67394 12.4073 5.00002 13.7334L9.39169 18.1334C9.46916 18.2115 9.56133 18.2735 9.66288 18.3158C9.76442 18.3581 9.87335 18.3799 9.98336 18.3799C10.0934 18.3799 10.2023 18.3581 10.3038 18.3158C10.4054 18.2735 10.4976 18.2115 10.575 18.1334L15 13.6918C16.3206 12.3712 17.0624 10.5801 17.0624 8.71259C17.0624 6.84504 16.3206 5.05399 15 3.73342V3.73342ZM13.8084 12.5001L10 16.3251L6.19169 12.5001C5.43931 11.747 4.92709 10.7878 4.71977 9.74366C4.51245 8.69953 4.61935 7.61738 5.02694 6.63399C5.43454 5.6506 6.12454 4.81013 7.00971 4.21882C7.89489 3.62751 8.93551 3.31191 10 3.31191C11.0645 3.31191 12.1052 3.62751 12.9903 4.21882C13.8755 4.81013 14.5655 5.6506 14.9731 6.63399C15.3807 7.61738 15.4876 8.69953 15.2803 9.74366C15.073 10.7878 14.5607 11.747 13.8084 12.5001V12.5001ZM7.50002 6.17509C6.82728 6.8499 6.44952 7.76389 6.44952 8.71675C6.44952 9.66962 6.82728 10.5836 7.50002 11.2584C7.99982 11.7591 8.63635 12.101 9.32973 12.2413C10.0231 12.3815 10.7425 12.3139 11.3976 12.0469C12.0527 11.7799 12.6143 11.3253 13.0121 10.7403C13.4098 10.1553 13.626 9.46581 13.6334 8.75842C13.6371 8.28609 13.5461 7.8178 13.3658 7.38124C13.1854 6.94469 12.9194 6.54872 12.5834 6.21675C12.2531 5.8789 11.8593 5.6097 11.4245 5.42464C10.9898 5.23958 10.5228 5.14232 10.0504 5.13845C9.57791 5.13457 9.10935 5.22417 8.67167 5.40208C8.23398 5.57999 7.83579 5.8427 7.50002 6.17509V6.17509ZM11.4084 10.0751C11.0926 10.3957 10.6752 10.5967 10.2276 10.6436C9.78006 10.6906 9.33008 10.5806 8.95461 10.3325C8.57915 10.0844 8.30152 9.71362 8.1692 9.28349C8.03687 8.85336 8.05806 8.39062 8.22915 7.97438C8.40024 7.55815 8.71061 7.21427 9.10718 7.00153C9.50375 6.7888 9.9619 6.72043 10.4033 6.8081C10.8447 6.89578 11.2419 7.13405 11.5271 7.4822C11.8123 7.83034 11.9677 8.26673 11.9667 8.71675C11.9546 9.23115 11.7388 9.71969 11.3667 10.0751H11.4084Z" fill="#BABABA"/>
</svg>
