<svg width="800" height="800" viewBox="0 0 800 800" fill="none" xmlns="http://www.w3.org/2000/svg">
<g clip-path="url(#clip0_67_9)">
<path d="M163.166 218.458L293.733 349.366C316.145 327.856 335.578 309.205 350.153 295.191L218.439 163.159L202.325 91.7234L84.797 20.2891L52.5454 52.5656L20.2938 84.8156L91.7298 202.345L163.166 218.458Z" fill="white"/>
<path d="M559.942 431.716L753.009 624.172C788.605 659.744 788.605 717.435 753.009 753.03C717.414 788.602 659.747 788.602 624.152 753.03L431.086 560.574L559.942 431.716Z" fill="white"/>
<path d="M718.683 317.823C785.163 257.497 796.27 188.942 781.403 131.13C780.964 126.539 779.866 122.683 775.861 119.802L762.481 108.839C760.163 106.666 757.038 105.616 753.913 105.909C750.763 106.227 747.906 107.838 746.052 110.402L669.098 210.45C666.95 213.405 663.483 215.089 659.845 214.967L631.916 217.019C629.523 216.945 627.203 216.091 625.323 214.577L571.369 168.849C569.172 167.066 567.731 164.527 567.364 161.719L564.019 136.425C563.628 133.642 564.336 130.809 565.997 128.514L638.042 30.6376C641.314 26.1454 640.68 19.9204 636.627 16.136L619.145 2.46412C615.727 -0.709313 611.845 -0.270251 606.547 0.754749C556.791 10.5688 471.83 58.7626 450.272 125.364C431.278 183.983 437.894 225.316 437.894 225.316C437.894 258.348 427.03 290.184 413.675 303.539L38.2876 663.942C37.5547 664.602 36.8469 665.284 36.1391 665.994C5.13287 697 5.1813 747.317 35.1376 777.273C65.0938 807.23 116.167 808.011 147.173 777.005C148.614 775.564 150.006 774.075 151.3 772.538L513.288 381.228C557.819 341.578 645.978 383.816 718.683 317.823Z" fill="white"/>
</g>
<defs>
<clipPath id="clip0_67_9">
<rect width="800" height="800" fill="white"/>
</clipPath>
</defs>
</svg>
